<?xml version="1.0" encoding="UTF-8"?>
<svg width="780px" height="323px" viewBox="0 0 780 323" version="1.1" xmlns="http://www.w3.org/2000/svg" xmlns:xlink="http://www.w3.org/1999/xlink">
    <title>Artboard</title>
    <g id="Artboard" stroke="none" stroke-width="1" fill="none" fill-rule="evenodd">
        <g id="Group-2-Copy" transform="translate(41.000000, 0.000000)">
            <path d="M16.9773544,301.409045 C16.9773544,301.409045 15.7294239,310.456951 13.5468086,314 L3.32590402,312.901173 C1.83040835,312.740369 0.769414797,311.282412 1.01192761,309.706533 C1.54747674,306.195645 2.69941259,300.454941 4.77087619,298 L16.9773544,301.409045 Z" id="Path" fill="#052E93"></path>
            <path d="M219.270374,266.785061 L210.408679,262.473888 C207.92667,261.139693 209.245812,259.129325 210.114515,256.470011 L211.828941,251.223994 C212.169068,250.180236 213.382495,249.694662 214.366106,250.202926 L224.022963,255.22204 C224.808932,255.630467 225.172041,256.551697 224.873281,257.377627 L221.812135,265.822989 C221.44443,266.848594 220.2356,267.302402 219.270374,266.785061" id="Path" fill="#00D0FF" fill-rule="nonzero"></path>
            <polygon id="Path" fill="#D48743" fill-rule="nonzero" points="299.769929 292 281.977354 285.963732 289.297941 274 302.977354 279.813929"></polygon>
            <path d="M634.138806,66.3135975 L638.883506,46.2500975 C639.295691,44.5034573 638.315608,42.7339554 636.621072,42.1486938 C632.009186,40.5666584 623.037305,37.5809097 616.840799,36.0674597 C615.659204,35.7794012 614.454709,36.4378206 614.056264,37.585482 C612.380048,42.4321799 608.267363,55.0381665 607.978834,62.8660407 C607.937615,64.036564 608.761984,65.0607718 609.916101,65.2711002 L630.108558,68.9427024 C631.940489,69.2764845 633.712882,68.1196783 634.138806,66.3135975" id="Path" fill="#00D0FF" fill-rule="nonzero"></path>
            <path d="M205.308245,289.783478 C205.668869,290.344541 206.038859,290.957467 205.996708,291.62697 C205.945191,292.433204 205.312928,293.055559 204.718134,293.602478 C203.369308,294.842474 202.015799,296.082471 200.666974,297.317752 C200.250149,297.699652 199.734973,298.109841 199.187012,297.973112 C198.695253,297.850527 198.423614,297.336612 198.208177,296.87456 C197.519714,295.394108 196.831251,293.908941 196.142788,292.428489 C195.538626,291.122485 194.915731,289.745759 195.0094,288.312455 C195.145219,286.237937 197.758568,282.546236 200.165847,283.046007 C202.395156,283.498629 204.226375,288.090859 205.308245,289.783478 Z" id="Path" fill="#D38742" fill-rule="nonzero"></path>
            <path d="M190.874314,314.533067 C189.750672,313.671734 189.805484,311.903734 190.499767,310.679735 C191.198617,309.451202 192.363367,308.571736 193.313438,307.529069 C196.031188,304.55067 196.92188,300.053605 195.547018,296.272807 C195.359744,295.751474 195.126794,295.20294 195.254688,294.668007 C195.428259,293.951741 196.195624,293.525608 196.931015,293.425874 C197.666406,293.326141 198.410933,293.466674 199.150892,293.439474 C200.480077,293.389608 201.768154,292.768541 202.654278,291.789342 C203.398804,290.968809 203.618051,289.495476 204.755396,289.096543 C205.760278,288.742943 206.888487,289.441076 207.728934,289.894409 C209.181446,290.674142 210.620255,291.490142 212.063632,292.292542 C212.383368,292.469341 212.712238,292.659741 213,292.886408 L207.75634,298.498673 C207.144275,298.417073 205.865334,297.63734 205.317216,297.342673 C205.75571,297.782406 206.673808,298.961072 206.756025,299.573072 L192.345096,315 C191.819817,314.990933 191.299105,314.854933 190.874314,314.533067 Z" id="Path" fill="#01015B"></path>
            <path d="M137.091684,239.484549 C135.537834,238.780356 134.258193,237.605207 132.736334,236.833734 C129.779449,235.335643 126.223874,235.501599 123.120744,234.321964 C119.779967,233.057108 117.120141,230.173058 116.16955,226.782168 C115.963894,226.055549 115.86335,225.19437 116.356926,224.615766 C116.818511,224.073044 117.627427,223.987824 118.34951,224.001279 C123.897669,224.117897 125.095048,226.391947 130.565514,227.293493 C132.027961,227.535699 138.257072,227.289007 141.255088,228.751216 C144.499893,230.330043 143.978896,231.711517 143.956045,232.998799 C143.928624,234.295052 143.220252,238.520209 141.986312,239.327563 C140.578707,240.247051 138.554131,240.148374 137.091684,239.484549 Z" id="Path" fill="#01015B"></path>
            <path d="M143.70872,227.249243 C143.912088,226.637143 144.120078,225.975169 143.91671,225.367603 C143.671744,224.633084 142.913737,224.202347 142.211194,223.839621 C140.616605,223.01442 139.022016,222.184685 137.43205,221.359484 C136.942118,221.105576 136.345881,220.847133 135.860571,221.11011 C135.421482,221.345881 135.287444,221.88997 135.195004,222.370582 C134.899196,223.9167 134.603388,225.462819 134.312203,227.008937 C134.053371,228.369159 133.799161,229.801926 134.238251,231.116806 C134.876086,233.012049 138.277875,235.823173 140.454835,234.771268 C142.460781,233.800977 143.089373,229.085542 143.70872,227.249243 Z" id="Path" fill="#D38742" fill-rule="nonzero"></path>
            <path d="M148.080093,176.208707 C149.04017,173.664186 150.161025,171.013451 151.902026,169 L166,186.677726 C162.559341,187.393517 158.475568,192.297839 156.302762,197.871772 C148.429212,218.080166 145.63626,225.612133 143.982539,227.482426 C142.71928,228.90939 135.548561,227.140693 135.107568,225.150333 C133.890246,219.627198 143.30727,188.871279 148.080093,176.208707 Z" id="Path" fill="#01015B" fill-rule="nonzero"></path>
            <path d="M242.918045,207.325421 C241.354932,211.541602 225.686697,222.777054 221.767319,225.00752 C216.011167,228.286259 210.259654,231.56038 204.503502,234.839118 C201.762257,236.399983 193.840011,238.579651 192.819581,241.558223 C191.428086,245.60354 202.406983,279.896376 202.369876,285.239334 C202.355961,287.012624 195.922615,292.323257 193.67767,290.693123 C191.432724,289.06299 179.809101,263.73358 175.193976,253.643377 C173.422138,249.773542 171.641025,245.866763 170.685531,241.719851 C169.730038,237.57294 169.651186,233.116626 171.237491,229.168286 C173.468522,223.61752 214.62431,198.288109 217.221768,198.020269 C220.895315,197.632362 244.564648,202.887579 242.918045,207.325421 Z" id="Path" fill="#01015B" fill-rule="nonzero"></path>
            <path d="M243.244994,178.112022 C245.945809,179.598481 247.951865,182.154634 249.24476,184.970107 C252.704747,192.504275 250.924142,202.140788 245.007195,207.919916 C239.090248,213.699045 221.91914,215.347579 211.414949,208.614523 C204.462766,204.159778 210.108251,199.149347 211.138886,190.915941 C211.654203,186.780715 213.70627,182.58529 217.391709,180.682067 C222.043368,178.283358 227.187339,180.288457 232.027641,179.149301 C236.256003,178.149068 238.524319,175.514192 243.244994,178.112022 Z" id="Path" fill="#01015B" fill-rule="nonzero"></path>
            <path d="M154.580668,166.492512 C164.857009,160.630249 216.952219,172.939146 226.366792,187.692198 C229.457108,192.53413 227.64091,198.600459 225.213136,203.377461 C221.395416,210.890804 213.630246,209.578288 207.004832,206.860498 C196.455135,202.533369 186.206593,197.473457 176.356503,191.731779 C171.209066,188.73108 161.016122,182.372565 157.921174,186.653316 L152,168.653758 C152.736672,167.80039 153.584539,167.06297 154.580668,166.492512 Z" id="Path" fill="#01015B" fill-rule="nonzero"></path>
            <path d="M274.329037,160.780654 C273.294417,156.3101 271.491879,151.999373 271.064236,147.432924 C270.806731,144.674789 271.082629,141.788793 272.420738,139.359442 C273.427768,137.532863 276.200549,134.605769 278.614663,135.044148 C281.102349,135.500793 282.886494,139.843486 284.022276,141.797926 C287.36065,147.551651 289.871328,153.780288 291.434754,160.237246 C291.632481,161.063773 291.816414,161.894867 291.977354,162.735094 L274.890031,164 C274.765876,162.913185 274.572747,161.830937 274.329037,160.780654 Z" id="Path" fill="#000090"></path>
            <path d="M245.619339,185.651406 C249.754225,182.747849 255.032803,182.161642 260.010409,181.209056 C264.988016,180.256469 270.294376,178.561965 273.100357,174.385239 C275.072878,171.454204 275.434044,167.822469 275.031205,164.268589 L292.237517,163 C293.237669,168.143051 293.427513,173.505929 291.510555,178.342137 C288.561034,185.788798 281.022854,190.698282 273.179073,192.644672 C265.335291,194.591063 257.107192,194.032334 249.041154,193.464446 C246.624121,193.294996 243.623666,192.662991 243.058765,190.331902 C242.614254,188.504585 244.063547,186.745964 245.619339,185.651406 Z" id="Path" fill="#D38742" fill-rule="nonzero"></path>
            <path d="M278.973497,135.709326 C280.935928,137.806183 281.84309,140.675565 282.35684,143.494365 C284.689541,156.190462 280.213902,169.396978 272.8085,180.005415 C265.403098,190.613853 255.280839,199.010475 245.079898,207.00244 C243.094325,208.556689 240.835677,210.18911 238.31784,209.982183 C234.69845,209.687888 232.574026,205.917225 231.088317,202.624793 C229.014804,198.021825 226.941292,193.41426 224.867779,188.811292 C223.780111,186.39255 222.664672,183.803668 223.058084,181.187196 C223.66903,177.122238 227.570751,174.510364 230.967979,172.169795 C240.358954,165.699889 248.518782,157.478005 254.896684,148.060546 C257.085906,144.827892 259.085364,141.434296 261.746681,138.569512 C265.949246,134.067708 273.826742,130.209677 278.973497,135.709326 Z" id="Path" fill="#000090"></path>
            <path d="M277.185148,132.234647 C277.521421,132.992967 277.894048,133.760534 277.966756,134.592835 C278.039464,135.425137 277.739544,136.349917 277.021555,136.752196 C276.52169,137.02963 275.917307,137.011134 275.349278,136.988015 C272.172858,136.844674 269.000983,136.701333 265.824564,136.557992 C266.210824,132.766396 265.229269,128.84533 263.102568,125.705703 C262.543627,124.882649 261.880169,123.999484 261.989231,123.005346 C262.102837,121.960345 263.02986,121.229769 263.911442,120.679525 C265.87455,119.449568 267.992163,118.47855 270.200661,117.803461 C272.695445,117.035893 273.976919,116.101866 274.367723,118.783727 C275.058447,123.509351 275.194774,127.749466 277.185148,132.234647 Z" id="Path" fill="#D38742" fill-rule="nonzero"></path>
            <path d="M278.142368,108.097095 C280.121935,110.754698 280.766445,114.713419 278.731634,117.329497 C277.53929,118.86131 275.674814,119.67797 273.888599,120.434648 C270.69367,121.786519 267.494136,123.143004 264.299206,124.494875 C262.374883,125.311535 257.241818,125.131593 255.478622,124.001189 C251.703633,121.588122 255.492433,106.237696 261.896103,101.134728 C266.624047,97.3697907 274.961249,103.824629 278.142368,108.097095 Z" id="Path" fill="#D38742" fill-rule="nonzero"></path>
            <path d="M282.566198,119.445586 C281.841668,121.172771 281.089091,122.946137 279.76624,124.28078 C278.443388,125.615423 276.391332,126.423598 274.615064,125.767822 C272.352661,124.936556 271.501922,122.276507 270.936321,119.9582 C270.253861,117.141134 268.141037,118.969918 267.458577,116.152852 C267.168765,114.956753 268.299967,109.10095 267.701645,108.020305 C266.257259,105.420291 263.265651,103.942486 261.802568,101.351709 C260.016951,98.197518 261.241641,93.7317753 264.392178,91.893755 C267.542716,90.0557348 272.086221,91.1594706 274.021417,94.2259164 C275.433082,96.465715 275.325571,99.4444161 276.94291,101.550289 C278.298482,103.319037 280.018657,102.986531 281.771552,103.993285 C287.28733,107.156712 284.398558,115.067588 282.566198,119.445586 Z" id="Path" fill="#01015B"></path>
            <path d="M275.961415,116.690205 C276.165868,114.832214 274.372255,113.04368 272.374189,113.000269 C270.376123,112.952517 268.405937,119.27316 269.130817,119.963395 C272.727336,120.249907 275.352702,118.826026 275.961415,116.690205 Z" id="Path" fill="#D38742" fill-rule="nonzero"></path>
            <path d="M212.156355,124.42177 C215.144599,130.939513 220.432913,140.500723 226.127665,144.845885 C231.822418,149.186415 239.664826,151.210761 246.311013,148.561045 C249.400866,147.328835 252.001146,145.216475 254.495198,142.969776 L261.977354,159.965938 C259.016822,161.587267 255.940825,162.995508 252.712413,164.042423 C243.91857,166.900595 233.822278,166.909859 225.869023,162.184843 C220.71003,159.118215 216.77497,154.282021 213.920666,148.996488 C211.061744,143.710955 207.787146,133.088933 206.008979,127.344795 C205.491694,125.677142 211.482038,122.948677 212.156355,124.42177 Z" id="Path" fill="#D38742" fill-rule="nonzero"></path>
            <path d="M256.754379,140.720965 C260.219663,137.654465 264.140784,134.687762 268.78287,134.107123 C279.350825,132.787076 281.732335,143.977988 275.787861,150.546469 C273.504029,153.06862 269.968974,154.774248 267.122324,156.597817 C265.238512,157.804458 263.312837,158.947592 261.335997,160 L250.977354,144.513265 C251.9681,143.63777 255.768285,141.591924 256.754379,140.720965 Z" id="Path" fill="#000090"></path>
            <path d="M211.345054,118.050485 L202.686223,118.994373 C202.175515,119.048567 201.595164,118.705336 201.395524,118.222101 L194.045964,100.925016 C193.846323,100.441782 194.097034,100.003709 194.607743,99.949515 L203.266574,99.005627 C203.777282,98.9514325 204.357633,99.2946645 204.557274,99.777899 L211.906833,117.074984 C212.111117,117.558218 211.855763,117.996291 211.345054,118.050485 Z" id="Path" fill="#3C79A6" fill-rule="nonzero"></path>
            <path d="M212.346899,118.050485 L203.687148,118.994373 C203.176385,119.048567 202.595973,118.705336 202.396311,118.222101 L195.045971,100.925016 C194.846309,100.441782 195.097047,100.003709 195.60781,99.949515 L204.267561,99.005627 C204.778323,98.9514325 205.358736,99.2946645 205.558397,99.777899 L212.908738,117.074984 C213.1084,117.558218 212.857662,117.991774 212.346899,118.050485 Z" id="Path" fill="#A2D1EB" fill-rule="nonzero"></path>
            <path d="M211.416779,117.146961 L203.718612,117.994804 C203.26524,118.044412 202.747754,117.733235 202.569153,117.300294 L196.038763,101.732451 C195.860162,101.29951 196.084558,100.907157 196.53793,100.853039 L204.236097,100.005196 C204.689469,99.9555884 205.206954,100.266765 205.385556,100.699706 L211.915946,116.267549 C212.094547,116.705 211.870151,117.097353 211.416779,117.146961 Z" id="Path" fill="#3C79A6" fill-rule="nonzero"></path>
            <path d="M209.40479,115.184799 C208.934318,114.120036 206.618859,111.359188 205.258182,108.645454 C203.247146,108.188454 204.898409,113.743128 205.622567,114.336758 C203.31172,114.138881 198.791502,112.037622 197.343188,108 C196.988028,108.400464 195.950223,110.360383 195.977897,110.897476 C196.093209,112.932777 197.564586,114.66184 197.675285,116.697141 C197.762922,118.218905 197.163301,119.095215 197.772147,120.485061 C198.740765,122.718238 200.857888,124.174044 202.928886,125.403704 C204.003591,126.039736 205.119808,126.661633 206.346724,126.887778 C213.136276,128.145706 210.866942,118.48274 209.40479,115.184799 Z" id="Path" fill="#D38742" fill-rule="nonzero"></path>
            <path d="M120.078677,267.963578 C118.191728,266.656793 117.469499,264.138456 118.349397,261.969299 L121.401068,254.477773 C121.965627,253.09163 123.593184,252.573148 124.808767,253.387905 L134.909796,260.165196 C135.886331,260.821233 136.247445,262.117437 135.764264,263.212596 L131.608906,272.587585 C131.008744,273.941985 129.391359,274.418141 128.201207,273.592803 L120.078677,267.963578 Z" id="Path" fill="#7672FF" fill-rule="nonzero"></path>
            <polygon id="Path" fill="#7672FF" fill-rule="nonzero" points="294.995788 228 305.977354 225.913242 304.756156 215 291.977354 216.269406"></polygon>
            <path d="M66.9773544,264.213356 L72.5594704,246 C72.5594704,246 90.155271,253.074877 92.5337378,255.786644 C94.9122047,258.49841 86.9516218,274 86.9516218,274 L66.9773544,264.213356 Z" id="Path" fill="#C9E0FF" fill-rule="nonzero"></path>
            <path d="M43.7806414,273 C43.7806414,273 50.3753316,266.989952 51.9773544,263.172019 L45.1869625,254.97899 C44.1948007,253.78246 42.4016275,253.663721 41.2683784,254.72781 C38.7379106,257.102601 34.760161,261.231084 33.9773544,264.35028 L43.7806414,273 Z" id="Path" fill="#D48743" fill-rule="nonzero"></path>
            <path d="M326.416493,256 L330.977354,265.69392 C330.977354,265.69392 320.612187,269.240366 318.538216,268.987048 C316.464244,268.729207 313.977354,259.293128 313.977354,259.293128 L326.416493,256 Z" id="Path" fill="#C9E0FF" fill-rule="nonzero"></path>
            <path d="M356.338521,230.028337 C356.338521,230.028337 355.328737,239.21896 356.686075,243.275868 L367.516602,244.966641 C369.099381,245.212228 370.564743,244.074026 370.715036,242.468265 C371.053197,238.888362 371.320907,232.95649 369.803882,230 L356.338521,230.028337 Z" id="Path" fill="#D48743" fill-rule="nonzero"></path>
            <polygon id="Path" fill="#7672FF" fill-rule="nonzero" points="77.504448 301.216867 68.8936105 302 66.9773544 290.297762 77.9773544 289"></polygon>
            <path d="M559.9465,52.9570854 C559.345797,48.5042751 557.89949,40.5876616 554.752732,35 L538.977354,39.0243925 L541.777553,55.2997103 C542.068663,56.9951508 543.653594,58.1710209 545.38639,57.9796002 L556.975332,56.6989045 C558.855993,56.4938109 560.200643,54.8029279 559.9465,52.9570854" id="Path" fill="#7672FF" fill-rule="nonzero"></path>
            <path d="M390.302112,88.043829 C387.425259,88.7444291 380.720261,90.4710696 374.938981,92.6271101 C374.199087,92.9028302 373.80846,93.6938304 374.047432,94.4351105 L379.06584,109.983914 C379.323195,110.783955 380.214743,111.204315 381.01438,110.901475 L395.030997,105.563353 C395.72953,105.296673 396.115562,104.559913 395.931737,103.841233 L392.094401,89.0969892 C391.89679,88.319549 391.092558,87.8494689 390.302112,88.043829" id="Path" fill="#C9E0FF" fill-rule="nonzero"></path>
            <path d="M509.838873,164.002846 L497.801597,169.70993 C496.777441,170.194363 495.597136,170.055954 495.252689,169.414657 C493.842753,166.771035 490.650877,160.537995 491.004509,158.830945 C491.358141,157.123894 500.561766,153.626748 504.575722,152.178062 C505.590693,151.813584 506.628627,152.025812 506.890406,152.657882 L510.918141,162.341932 C511.147772,162.89557 510.693102,163.601458 509.838873,164.002846" id="Path" fill="#F92385" fill-rule="nonzero"></path>
            <path d="M559.637094,184.182663 C561.118166,182.135468 563.697508,178.350699 564.845908,175.383884 C565.146679,174.598279 564.918822,173.706386 564.289936,173.156462 L556.889138,166.691394 C555.663267,165.619273 553.799396,165.817985 552.815053,167.121166 C550.623068,170.032526 547.246226,175.014188 546.977354,178.39229 L557.012181,184.700238 C557.887152,185.250162 559.030995,185.023722 559.637094,184.182663" id="Path" fill="#0067E2" fill-rule="nonzero"></path>
            <path d="M509.876622,19.6298458 C507.630452,18.5318518 503.511713,16.6566768 500.427215,16.0376431 C499.611668,15.8749773 498.787009,16.2500123 498.363289,16.9594159 L493.37433,25.2824818 C492.545115,26.6651409 493.059957,28.449946 494.499693,29.1864606 C497.707207,30.8311924 503.128998,33.2847346 506.454971,32.9729585 L510.837965,22.101462 C511.216124,21.1570968 510.801516,20.0771767 509.876622,19.6298458" id="Path" fill="#0067E2" fill-rule="nonzero"></path>
            <path d="M580.977354,118.907668 L568.760765,123 L563.14811,110.603183 C562.689185,109.584708 563.189413,108.386503 564.240352,108.008607 L574.873649,104.160524 C576.420227,103.602898 578.095304,104.552245 578.421141,106.169823 L580.977354,118.907668 Z" id="Path" fill="#FFED33" fill-rule="nonzero"></path>
            <path d="M329.519256,97.3309642 C326.337575,97.0174974 320.943778,96.7040307 316.227736,97.5153564 C314.900466,97.7412368 313.949727,98.8890782 313.977967,100.207482 L314.156819,108.675694 C314.185059,110.067855 315.295823,111.201867 316.712519,111.289453 L327.937828,111.994753 C329.368644,112.082339 330.620607,111.063573 330.794752,109.671412 L331.957289,100.313508 C332.140848,98.8245409 331.044203,97.4784779 329.519256,97.3309642" id="Path" fill="#FFED33" fill-rule="nonzero"></path>
            <path d="M247.320095,273.055789 C249.181215,272.717436 250.960428,273.953552 251.269857,275.803214 L253.203784,287.30721 C253.49046,289.012508 252.421112,290.654647 253.977354,290.248624 L245.768403,292.405059 C240.726542,293.731402 238.879073,292.67123 238.392178,290.884727 C237.65046,288.141813 236.481003,283.887591 235.102227,279.01531 C234.569828,277.120534 235.79389,275.171622 237.746019,274.810712 L247.320095,273.055789 Z" id="Path" fill="#F92385" fill-rule="nonzero"></path>
            <path d="M286.755144,267.878886 L282.49039,275.942594 C281.919555,277.016833 280.499543,277.334955 279.508837,276.606501 L272.772037,271.636417 C271.951166,271.027836 271.734154,269.912103 272.271966,269.054556 L276.121566,262.931855 C276.640508,262.101971 277.706696,261.774628 278.62192,262.161907 L285.773873,265.195594 C286.835344,265.638199 287.28352,266.873805 286.755144,267.878886" id="Path" fill="#FFFFFF" fill-rule="nonzero"></path>
            <path d="M466.274899,57.1932322 C466.006165,58.5366262 464.535198,59.3292287 463.182097,58.8679968 L454.870189,56.0289573 C452.894756,55.3527823 451.701953,53.4406848 452.031977,51.4703735 L453.139917,44.8743086 C453.370934,43.5085247 454.837187,42.6711424 456.213861,43.1234184 L466.39748,46.4416017 C467.500705,46.7998401 468.15604,47.8745554 467.934452,48.9627046 L466.274899,57.1932322 Z" id="Path" fill="#E0000F" fill-rule="nonzero"></path>
            <path d="M290.649015,244.626995 L284.392368,256.450142 C283.557524,258.027172 281.470412,258.490196 280.021158,257.422033 L270.143724,250.132849 C268.938359,249.243477 268.619429,247.602265 269.412063,246.346142 L275.063681,237.365318 C275.828174,236.150454 277.38999,235.669093 278.72668,236.237558 L289.213832,240.684418 C290.770958,241.339986 291.427578,243.150821 290.649015,244.626995" id="Path" fill="#FFED33" fill-rule="nonzero"></path>
            <path d="M333.908648,214.968239 C333.908648,214.968239 324.122027,215.330351 319.938156,213.609199 L318.98769,202.173594 C318.846711,200.501617 320.16554,199.057637 321.870923,199.017403 C325.677336,198.932463 331.966786,199.097872 334.977354,200.903964 L333.908648,214.968239 Z" id="Path" fill="#052E93"></path>
            <path d="M508.474261,47.0872836 C504.080531,48.1942591 495.177691,50.5842147 487.414821,53.5253422 C486.311774,53.9421949 485.725635,55.1556994 486.08101,56.2858335 L492.953135,77.9945965 C493.451584,79.5740052 495.177691,80.4030789 496.719189,79.80559 L514.658711,72.8348863 C516.370974,72.1679219 517.317102,70.3245066 516.864807,68.5366716 L511.917246,49.1391253 C511.524949,47.6245604 509.988067,46.7028527 508.474261,47.0872836" id="Path" fill="#C9E0FF" fill-rule="nonzero"></path>
            <path d="M549.115833,149.218238 C550.41185,147.048132 552.980658,142.590861 554.871264,138.376714 C555.140687,137.777909 554.880555,137.080053 554.276676,136.787404 L542.677554,131.168541 C541.832123,130.758833 540.810174,131.123518 540.438556,131.965447 L536.141725,141.771444 C535.732945,142.707921 536.109208,143.792974 537.019672,144.297231 L546.909352,149.79003 C547.680459,150.22225 548.665246,149.965619 549.115833,149.218238" id="Path" fill="#C9E0FF" fill-rule="nonzero"></path>
            <path d="M385.743144,259.818153 C387.023423,258.925584 389.598366,257.076364 391.727369,255.199679 C392.029458,254.934197 392.063023,254.485624 391.799295,254.183524 L386.740515,248.347494 C386.371296,247.921807 385.704784,247.880611 385.282819,248.260525 L380.377481,252.654713 C379.907566,253.075822 379.84523,253.762414 380.22404,254.25676 L384.357374,259.62133 C384.683438,260.033285 385.302,260.124831 385.743144,259.818153" id="Path" fill="#C9E0FF" fill-rule="nonzero"></path>
            <path d="M587.175929,70.1051898 L578.777379,73.6863854 C578.062311,73.9902727 577.767871,74.8411573 578.137089,75.5237351 C579.660699,78.3194988 583.301473,84.8226881 584.717589,85.8185036 C586.129031,86.8143191 591.896316,83.4575326 594.354656,81.9380959 C594.976252,81.5547303 595.163198,80.736572 594.775285,80.1194469 L588.802359,70.6101103 C588.461183,70.0677883 587.769483,69.8527295 587.175929,70.1051898" id="Path" fill="#F92385" fill-rule="nonzero"></path>
            <polygon id="Path" fill="#D48743" fill-rule="nonzero" points="537.977354 4.83141478 534.623535 15 527.977354 10.8158188 531.203869 3"></polygon>
            <path d="M479.982659,195.884823 C481.004493,196.082595 482.307102,196.11939 482.808814,195.213317 C483.287511,194.353237 482.656919,193.313783 482.035534,192.54569 C476.81129,186.060598 459.127111,170.220415 455.467839,171.029902 C452.057121,171.779597 450.989258,173.978089 452.963884,176.82969 C456.977576,182.629478 475.899924,195.102932 479.982659,195.884823" id="Path" fill="#0066E3" fill-rule="nonzero"></path>
            <path d="M482.087701,200.484581 C483.543946,202.021835 485.59928,203.141506 487.714522,202.985486 C489.415011,202.856999 490.968032,201.92547 492.189251,200.741555 C492.719213,200.227607 493.226134,199.438331 492.843639,198.805074 C492.50262,198.245238 491.70998,198.24065 491.078633,198.047919 C489.640821,197.607393 488.921915,196.060962 487.903465,194.964234 C486.774414,193.748198 485.133834,193.018576 483.470212,193.000221 C482.152218,192.986454 479.216686,193.615122 478.990875,195.25333 C478.77889,196.767639 481.115335,199.461275 482.087701,200.484581" id="Path" fill="#0066E3" fill-rule="nonzero"></path>
            <path d="M481.977354,291.365616 L490.486197,287 C491.902118,291.168034 493.25146,295.354886 494.520906,299.569964 C494.947014,300.990671 495.324297,302.698341 494.436572,303.855606 C493.300285,305.337469 490.392986,305.445669 489.491945,303.79445 C487.325896,299.828702 484.738179,295.637146 481.977354,291.365616" id="Path" fill="#0066E3" fill-rule="nonzero"></path>
            <path d="M494.067963,311.224968 C492.800162,310.043029 491.509056,308.837452 490.665409,307.319842 C489.835746,305.8306 488.824302,304.473734 488.99676,302.771742 C489.803118,303.140507 491.48109,303.097958 492.147618,302.506988 C492.674314,302.03894 493.881522,298.285103 494.524744,298.006166 C494.986186,297.8076 500.472222,302.473894 502.970535,302.067307 C505.468848,301.66072 507.785381,300.530787 510.185813,299.708157 C511.020138,299.424492 511.891751,299.169193 512.772686,299.244837 C513.653621,299.320482 514.548539,299.788529 514.9121,300.601703 C514.949388,300.682075 514.954049,300.752991 514.977354,300.828635 L503.954013,311.437717 C503.338756,311.30534 502.728161,311.102046 502.131549,310.90348 C499.992135,310.184862 497.852721,309.461515 495.708646,308.738169 C496.976447,310.98858 498.579842,313.040426 500.439594,314.818061 L499.209082,316 C497.493822,314.406747 495.783223,312.813493 494.067963,311.224968" id="Path" fill="#00005C" fill-rule="nonzero"></path>
            <path d="M528.977354,232.675394 L535.582547,226 C537.4885,229.695066 539.340127,233.426095 541.123846,237.188589 C541.748601,238.510182 542.364301,240.114974 541.671638,241.39611 C540.784306,243.036863 537.977439,243.630232 536.859219,242.164792 C534.505072,239.09456 531.820439,235.907453 528.977354,232.675394" id="Path" fill="#0066E3" fill-rule="nonzero"></path>
            <path d="M539.941257,247.566868 C538.663131,246.470011 537.366812,245.350302 536.488953,243.910677 C535.629289,242.503043 534.878788,240.949162 534.987951,239.299305 C535.788486,239.632933 537.143936,239.802032 537.771627,239.207901 C538.271961,238.737166 539.618314,235.304916 540.236909,235.007851 C540.678112,234.79762 545.890682,238.883414 548.310478,238.408109 C550.734823,237.928234 552.954486,236.753682 555.265119,235.880767 C556.07475,235.57456 556.911672,235.300346 557.771337,235.341478 C558.631001,235.387181 559.517957,235.807643 559.904579,236.580013 C559.940966,236.653137 559.954612,236.726261 559.977354,236.794814 L549.584055,247.425191 C548.979106,247.320075 548.378705,247.146406 547.79195,246.972737 C545.681451,246.346614 543.566403,245.725062 541.455904,245.103509 C542.770418,247.233241 544.403325,249.161881 546.277303,250.811738 L545.117438,252 C543.389012,250.523813 541.665134,249.047626 539.941257,247.566868" id="Path" fill="#00005C" fill-rule="nonzero"></path>
            <path d="M438.551851,221.335547 C431.181358,221.270342 426.446151,220.362134 422.550912,214.442481 C417.575714,206.87408 416.768052,195.76134 426.856905,194.834502 C446.859232,192.999456 472.256741,183.605325 494.37745,190.484418 C511.509116,195.812572 527.726969,216.803822 531.299143,221.321574 C533.565212,224.185923 535.789744,227.092189 537.977354,230.026399 L532.508329,238 C517.315052,225.559879 496.126616,216.533688 490.283758,206.45025 C490.292988,206.454908 455.655825,221.484586 438.551851,221.335547 Z" id="Path" fill="#00005C" fill-rule="nonzero"></path>
            <path d="M474.043433,256.925457 C475.052751,260.166549 475.734846,264.160201 473.412034,266.085465 C472.001755,267.253551 469.840248,267.207381 467.964485,266.482522 C466.088721,265.757662 464.424961,264.441835 462.802679,263.144475 C455.778935,257.548744 407.668138,234.431728 409.004677,215.109836 C409.603815,206.443841 430.744176,202.805692 438.648192,209.352513 C449.114675,218.027742 461.240311,227.931077 467.812396,239.810462 C471.669924,246.791275 471.711403,249.418314 474.043433,256.925457" id="Path" fill="#00005C" fill-rule="nonzero"></path>
            <path d="M458.125507,253.05867 C456.519366,242.841031 468.381528,239.052828 473.916893,248.137204 C478.279078,255.293207 485.350751,270.980664 490.350736,283.286613 C491.621682,286.421362 492.813485,289.58353 493.977354,292.759406 L485.0528,297 C473.791195,280.846443 459.768891,263.49108 458.125507,253.05867" id="Path" fill="#00005C" fill-rule="nonzero"></path>
            <path d="M441.973857,221.94554 C438.619754,224.512361 419.485399,247.627732 405.598958,213.634814 C394.63766,186.797319 411.408172,186.63893 418.28066,189.736819 C424.705934,192.634392 432.317693,184.668394 438.829671,187.701063 C459.150512,197.167092 446.322781,218.721872 441.973857,221.94554" id="Path" fill="#00005C" fill-rule="nonzero"></path>
            <path d="M446.913563,149 C447.652923,150.301596 449.469374,154.822444 450.172222,156.142568 C454.028757,163.396304 454.530792,168.000528 458.387327,175.254264 C458.752443,175.939802 459.126687,176.690189 458.916745,177.431311 C458.588141,178.607843 456.876661,179.196109 455.502912,178.941348 C454.129164,178.681956 453.042945,177.829665 452.057132,176.986638 C444.613334,170.636145 442.021012,165.665992 437.977354,157.346892 L446.913563,149 Z" id="Path" fill="#0066E3" fill-rule="nonzero"></path>
            <path d="M414.260366,129.008972 C415.25533,128.799649 414.91317,132.31719 415.782075,132.849599 C416.601456,133.345604 416.835565,134.424074 416.939114,135.384231 C417.61893,141.686682 409.078454,148.808224 403.770483,147.925426 L395.977354,138.264701 C395.977354,138.264701 401.668004,131.634614 414.260366,129.008972 Z" id="Path" fill="#FF8D7E" fill-rule="nonzero"></path>
            <path d="M408.589564,141.441459 C410.955403,133.394122 418.911564,131.062093 427.164596,132.31992 C435.417628,133.573156 445.08651,140.927311 446.977354,149.098594 L438.034666,157.370871 C441.05819,165.184087 433.330392,166.896385 432.494584,169.545166 C430.78643,174.971265 432.01959,180.369821 432.01959,180.369821 C435.979401,183.422576 439.998587,187.439359 445.150452,192.264088 C427.269643,187.756111 398.806501,208.964723 402.72064,205.645713 C401.300223,199.508069 394.357993,171.91851 400.427877,149.172044 C400.560328,148.667077 403.433132,148.212607 403.433132,148.212607 C403.433132,148.212607 406.940785,147.051183 408.589564,141.441459 Z" id="Path" fill="#FF8D7E" fill-rule="nonzero"></path>
            <path d="M387.84231,146.000517 C388.816863,145.068508 394.138379,138.913554 395.131064,138 L402.977354,147.795327 C402.50141,148.178282 399.799856,150.222243 399.323911,150.605198 C394.342356,154.582387 392.252731,156.594051 387.271176,160.57124 C385.403659,162.066146 383.549741,164.225455 381.043098,163.980918 C379.243573,163.810203 377.512041,162.536765 377.095023,160.686588 C376.732398,159.080947 377.244605,157.33689 378.128503,155.901965 C379.007867,154.467039 380.231726,153.290492 381.441985,152.132401 C385.408192,148.325927 389.378931,144.519453 393.349671,140.712978" id="Path" fill="#0066E3" fill-rule="nonzero"></path>
            <path d="M379.214366,194.715779 C379.038301,196.203281 378.978069,197.098581 377.495422,196.991331 C376.34637,196.907397 375.155619,196.473736 375.07222,195.317308 C374.479161,187.301583 376.832864,158.353578 377.532488,156.614273 C378.690806,153.751181 385.599015,152.520144 386.826832,156.707533 C388.068549,160.960204 381.266905,178.619047 379.654527,192.118479" id="Path" fill="#0066E3" fill-rule="nonzero"></path>
            <path d="M383.13239,196.062838 C384.501825,198.000557 385.871259,199.938276 387.235971,201.880698 C387.245415,202.39805 386.485143,202.586178 386.041258,202.322798 C385.597372,202.059419 385.347096,201.56088 384.978765,201.198733 C384.610435,200.836587 383.939884,200.643756 383.604609,201.043528 C383.269334,201.438597 383.566831,202.035903 383.864329,202.459191 C385.238486,204.420426 386.60792,206.381661 387.977354,208.342896 C386.95264,209.923171 384.690712,210.351162 382.905725,209.720933 C381.120738,209.090704 379.760749,207.642119 378.669923,206.104172 C377.154101,203.964216 376.020776,201.551473 375.345503,199.021151 C374.953562,197.558456 374.731619,195.931148 375.430503,194.590736 C377.229656,191.180915 381.682679,194.007539 383.13239,196.062838" id="Path" fill="#0066E3" fill-rule="nonzero"></path>
            <path d="M454.925807,106.11248 C455.26124,103.225316 453.937886,100.194489 451.589853,98.5029727 C449.246414,96.8114561 445.97479,96.5194957 443.374033,97.7707545 C442.046084,98.4102868 440.855985,99.4205625 439.399377,99.6291056 C437.487866,99.9025288 435.70042,98.7207844 433.830264,98.238818 C430.990568,97.5019656 427.107811,98.0719835 425.857977,100.74597 C421.387064,110.325051 423.611033,118.184811 414.329178,120.844894 C385.036195,129.242231 411.962765,152.886389 419.572048,147.098158 C426.891847,141.532374 419.971811,138.988147 422.779342,131.133022 C424.33704,126.776788 436.518326,127.09192 439.766975,123.82011 C441.549826,122.022004 442.082844,119.334115 443.498097,117.234781 C444.881185,115.186424 446.806481,114.2642 449.03045,113.434661 C450.689237,112.813666 452.357214,111.386304 453.386489,109.968211 C454.213585,108.837444 454.764982,107.502768 454.925807,106.11248" id="Path" fill="#7D4E5B" fill-rule="nonzero"></path>
            <path d="M434.977354,126.68838 C433.629769,129.544123 432.902429,132.716653 432.866732,135.8985 C432.857807,136.881472 432.844421,138.027496 432.099233,138.633119 C431.38528,139.210789 430.367897,138.991834 429.497767,138.749585 C428.043089,138.339625 426.552713,137.915689 425.294371,137.049183 C424.031567,136.178018 423.018647,134.771111 422.978487,133.196492 C422.947252,131.896733 423.567498,130.685489 424.169896,129.544123 C425.325606,127.359224 426.481317,125.174324 427.637028,122.989425 C427.976156,122.351192 428.342057,121.680348 428.939992,121.302999 C429.94845,120.669425 431.318347,121.098019 432.157241,121.955208 C432.996136,122.817055 433.428969,124.005007 433.839492,125.15569 L434.977354,126.68838 Z" id="Path" fill="#0066E3" fill-rule="nonzero"></path>
            <path d="M440.996949,126.596877 C442.516197,125.56796 443.598015,124.058881 444.642204,122.57724 C446.081491,120.537697 447.520779,118.46157 448.339198,116.120212 C449.157616,113.778853 449.289316,111.108241 448.136945,108.904071 C446.749396,106.242605 443.720307,104.710661 440.700625,104.193916 C438.076042,103.745765 435.159838,104.010997 433.099681,105.661838 C431.980235,106.558139 431.208852,107.783694 430.456283,108.986384 C429.473241,110.545766 428.476087,112.15545 428.12332,113.948053 C427.728222,115.937293 428.170356,118.017993 429.026403,119.865471 C429.88245,121.712949 431.143002,123.354644 432.450591,124.927744 C433.207863,125.837765 433.99806,126.747785 435.018731,127.369708 C437.045963,128.613555 439.17197,127.836151 440.996949,126.596877" id="Path" fill="#0066E3" fill-rule="nonzero"></path>
            <path d="M439.426685,109.25649 C437.383633,110.860264 436.32088,113.729185 433.934265,114.70744 C431.996573,115.506975 429.545827,114.608674 428.533463,112.732117 C427.763883,111.30236 427.828014,109.486945 428.510559,108.010156 C429.193103,106.533367 430.439089,105.381096 431.849986,104.623889 C433.260883,103.861979 434.832109,103.471617 436.407916,103.23646 C438.831176,102.874317 441.346054,102.879021 443.696022,103.598602 C445.180212,104.054808 446.595689,104.816718 447.768383,105.86552 C448.652483,106.660352 450.301584,108.315861 449.921374,109.68918 C449.545746,111.04839 448.391376,110.690951 447.681347,109.980775 C446.60027,108.903754 445.514613,108.16536 443.966291,107.977234 C442.36758,107.784405 440.704737,108.25472 439.426685,109.25649" id="Path" fill="#7D4E5B" fill-rule="nonzero"></path>
            <path d="M430.609948,111.77428 C430.22678,111.490369 429.805769,111.223665 429.327992,111.090313 C428.854946,110.95266 428.306212,110.961263 427.88047,111.193553 C427.303354,111.507576 427.047909,112.148525 426.991143,112.759363 C426.849229,114.295061 427.809513,115.744726 429.559785,115.977016 C430.884314,116.153385 431.75945,115.29305 431.953399,114.140201 C432.118965,113.150816 431.399935,112.359307 430.609948,111.77428" id="Path" fill="#0066E3" fill-rule="nonzero"></path>
            <path d="M623.977354,127 C623.977354,127 624.328478,119.158177 624.894957,117 L633.977354,117.10277 L633.307879,126.106345 L623.977354,127 Z" id="Path" fill="#F92385"></path>
            <path d="M572.617069,27 L558.977354,14.271028 C558.977354,14.271028 565.957706,4.26168224 569.899977,0 C569.899977,0 581.781041,8.64953271 584.977354,14.2383178 L572.617069,27 Z" id="Path" fill="#57FFE1"></path>
            <path d="M332.27552,177 L343.977354,175.998552 C343.977354,175.998552 342.004877,164.396518 340.679189,162.601295 C339.353501,160.806072 328.977354,163.602744 328.977354,163.602744 L332.27552,177 Z" id="Path" fill="#00D1FF"></path>
            <path d="M462.737262,87 L468.977354,86.4680246 C468.977354,86.4680246 467.925086,80.2786062 467.217446,79.3210505 C466.509807,78.3634947 460.977354,79.8530259 460.977354,79.8530259 L462.737262,87 Z" id="Path" fill="#00D1FF"></path>
            <path d="M36.1622066,297.94275 L41.8545861,296.148198 C43.4647433,295.557445 42.9296028,293.974673 42.730701,292.00178 L42.342369,288.111727 C42.2665969,287.33706 41.6130625,286.829905 40.9784711,287.05283 L34.7414796,289.231929 C34.2300179,289.410269 33.9127222,290.001022 33.9884943,290.619641 L34.7841015,296.928438 C34.8835523,297.691959 35.5370868,298.171249 36.1622066,297.94275 Z" id="Path" fill="#F92385"></path>
            <path d="M312.714721,145.733933 L317.374425,142.016302 C318.663177,140.896246 317.614864,139.876281 316.744475,138.417825 L315.027742,135.529511 C314.686319,134.952802 313.902489,134.824115 313.392759,135.257838 L308.357971,139.499751 C307.949225,139.847683 307.857858,140.438691 308.141576,140.89148 L311.079738,145.50039 C311.440396,146.058034 312.214609,146.167657 312.714721,145.733933 Z" id="Path" fill="#F92385"></path>
            <path d="M538.429582,88.4611225 L533.621075,86.2246129 C532.568512,85.7326719 531.31803,86.0697426 530.64331,87.0308496 L528.151344,90.5837569 C527.813983,91.0665879 527.984913,91.7407293 528.511194,91.9958098 L534.534197,94.9064609 C534.957021,95.1114363 535.465311,94.970231 535.721704,94.5739452 L538.820919,89.8595104 C539.140287,89.3675694 538.951365,88.707093 538.429582,88.4611225 Z" id="Path" fill="#00D1FF"></path>
            <polygon id="Path" fill="#57FFE1" fill-rule="nonzero" points="253.624413 222 259.977354 231.423629 250.330296 238 243.977354 228.576371"></polygon>
            <path d="M355.163191,123.001531 C354.880259,123.019103 354.626596,123.18165 354.514399,123.427666 C354.021707,124.54792 353.358281,126.546803 353.007055,127.636304 C352.880224,128.036081 353.172912,128.444643 353.631456,128.497361 L357.831531,128.993787 C357.880312,128.99818 357.933971,129.002573 357.982753,128.99818 C358.285197,128.980608 358.553494,128.796095 358.651057,128.52372 L359.943763,124.776363 C360.070594,124.402946 359.826688,124.011955 359.407168,123.915306 L355.397341,123.023497 C355.319291,123.001531 355.241241,122.997138 355.163191,123.001531" id="Path" fill="#E0000F" fill-rule="nonzero"></path>
            <path d="M488.596602,124.721415 L497.248073,115.743394 C499.146727,113.776196 502.175971,113.433009 504.467873,114.922196 L512.971876,120.456089 C514.127044,121.209875 514.317524,122.8155 513.383558,123.820548 L502.642954,135.298932 C501.887179,136.101745 500.658277,136.23044 499.748889,135.60535 L488.928406,128.067489 C487.810105,127.28919 487.650348,125.701949 488.596602,124.721415" id="Path" fill="#00D0FF" fill-rule="nonzero"></path>
            <path d="M104.183966,287 C104.183966,287 111.224755,293.534705 112.977354,297.726077 L105.941631,306.886381 C104.913371,308.223146 103.024009,308.382919 101.813398,307.221904 C99.1085194,304.638911 94.853654,300.138645 93.9773544,296.703531 L104.183966,287 Z" id="Path" fill="#00D0FF"></path>
            <path d="M599.780641,152 C599.780641,152 606.375332,145.989952 607.977354,142.172019 L601.186962,133.97899 C600.194801,132.78246 598.401627,132.663721 597.268378,133.72781 C594.737911,136.102601 590.760161,140.231084 589.977354,143.35028 L599.780641,152 Z" id="Path" fill="#D48743" fill-rule="nonzero"></path>
        </g>
        <g id="Group-Copy" transform="translate(148.000000, 244.000000)">
            <g id="Group" transform="translate(147.462687, 0.000000)"></g>
            <g id="Group" transform="translate(88.112379, 6.837607)"></g>
        </g>
    </g>
</svg>
