<svg xmlns="http://www.w3.org/2000/svg" width="780" height="323"><g fill="none" fill-rule="evenodd"><path fill="#052E93" d="M57.977 301.409s-1.248 9.048-3.43 12.591l-10.221-1.099c-1.496-.16-2.557-1.619-2.314-3.194.535-3.511 1.687-9.252 3.759-11.707z"/><path fill="#00D0FF" fill-rule="nonzero" d="m260.27 266.785-8.861-4.311c-2.482-1.334-1.163-3.345-.294-6.004l1.714-5.246c.34-1.044 1.553-1.53 2.537-1.021l9.657 5.019c.786.408 1.149 1.33.85 2.156l-3.06 8.445c-.369 1.026-1.577 1.48-2.543.962"/><path fill="#D48743" fill-rule="nonzero" d="m340.77 292-17.793-6.036 7.32-11.964 13.68 5.814z"/><path fill="#00D0FF" fill-rule="nonzero" d="m675.139 66.314 4.745-20.064a3.49 3.49 0 0 0-2.263-4.101c-4.612-1.582-13.584-4.568-19.78-6.082a2.357 2.357 0 0 0-2.785 1.518c-1.676 4.847-5.789 17.453-6.077 25.281a2.36 2.36 0 0 0 1.937 2.405l20.193 3.672a3.495 3.495 0 0 0 4.03-2.63"/><path fill="#D38742" fill-rule="nonzero" d="M246.308 289.783c.36.562.73 1.174.689 1.844-.052.806-.684 1.429-1.279 1.975-1.349 1.24-2.702 2.48-4.051 3.716-.417.382-.932.792-1.48.655-.492-.122-.763-.636-.979-1.098l-2.065-4.447c-.604-1.306-1.227-2.682-1.134-4.116.136-2.074 2.75-5.766 5.157-5.266 2.23.453 4.06 5.045 5.142 6.737"/><path fill="#01015B" d="M231.874 314.533c-1.123-.861-1.069-2.63-.374-3.853.699-1.229 1.863-2.108 2.813-3.15 2.718-2.98 3.609-7.476 2.234-11.257-.187-.522-.42-1.07-.292-1.605.173-.716.94-1.142 1.676-1.242.735-.1 1.48.04 2.22.013 1.33-.05 2.617-.67 3.503-1.65.745-.82.964-2.294 2.101-2.692 1.005-.354 2.133.344 2.974.797 1.452.78 2.891 1.596 4.335 2.399.32.176.648.367.936.593l-5.244 5.613c-.612-.082-1.89-.862-2.439-1.156.439.44 1.357 1.618 1.439 2.23L233.346 315c-.526-.01-1.047-.145-1.472-.467M178.092 239.485c-1.554-.705-2.834-1.88-4.356-2.651-2.957-1.498-6.512-1.332-9.615-2.512-3.341-1.265-6-4.149-6.951-7.54-.206-.726-.307-1.588.187-2.166.462-.543 1.27-.628 1.993-.615 5.548.117 6.745 2.39 12.216 3.292 1.462.243 7.691-.004 10.69 1.458 3.244 1.579 2.723 2.96 2.7 4.248-.027 1.296-.736 5.521-1.97 6.329-1.407.92-3.432.82-4.894.157"/><path fill="#D38742" fill-rule="nonzero" d="M184.709 227.25c.203-.613.411-1.275.208-1.882-.245-.735-1.003-1.166-1.706-1.528q-2.392-1.24-4.779-2.48c-.49-.254-1.086-.513-1.571-.25-.44.236-.574.78-.666 1.26q-.445 2.32-.883 4.639c-.259 1.36-.513 2.793-.074 4.108.638 1.895 4.04 4.706 6.217 3.654 2.006-.97 2.634-5.685 3.254-7.522"/><path fill="#01015B" fill-rule="nonzero" d="M189.08 176.209c.96-2.545 2.081-5.196 3.822-7.209L207 186.678c-3.44.716-7.524 5.62-9.697 11.194-7.874 20.208-10.667 27.74-12.32 29.61-1.264 1.427-8.434-.341-8.875-2.332-1.218-5.523 8.2-36.279 12.972-48.941M283.918 207.325c-1.563 4.217-17.231 15.452-21.15 17.683-5.757 3.278-11.508 6.552-17.264 9.831-2.742 1.561-10.664 3.74-11.684 6.72-1.392 4.045 9.587 38.337 9.55 43.68-.014 1.774-6.447 7.084-8.692 5.454s-13.869-26.96-18.484-37.05c-1.772-3.87-3.553-7.776-4.508-11.923s-1.035-8.603.551-12.552c2.232-5.55 43.387-30.88 45.985-31.148 3.673-.388 27.343 4.868 25.696 9.305"/><path fill="#01015B" fill-rule="nonzero" d="M284.245 178.112c2.7 1.486 4.707 4.043 6 6.858 3.46 7.534 1.68 17.17-4.238 22.95-5.917 5.779-23.088 7.428-33.592.695-6.952-4.455-1.307-9.466-.276-17.7.515-4.134 2.567-8.33 6.253-10.233 4.651-2.399 9.795-.394 14.636-1.533 4.228-1 6.496-3.635 11.217-1.037"/><path fill="#01015B" fill-rule="nonzero" d="M195.58 166.493c10.277-5.863 62.372 6.446 71.787 21.2 3.09 4.841 1.274 10.907-1.154 15.684-3.818 7.514-11.583 6.201-18.208 3.483a247 247 0 0 1-30.648-15.128c-5.148-3-15.34-9.36-18.436-5.079l-5.921-18c.737-.853 1.585-1.59 2.58-2.16"/><path fill="#000090" d="M315.329 160.78c-1.035-4.47-2.837-8.78-3.265-13.347-.257-2.758.019-5.644 1.357-8.074 1.007-1.826 3.78-4.753 6.194-4.315 2.487.457 4.271 4.8 5.407 6.754a69.3 69.3 0 0 1 7.413 18.44c.197.826.381 1.657.542 2.497L315.89 164a29 29 0 0 0-.561-3.22"/><path fill="#D38742" fill-rule="nonzero" d="M286.62 185.651c4.134-2.903 9.413-3.49 14.39-4.442 4.978-.953 10.284-2.647 13.09-6.824 1.973-2.93 2.334-6.563 1.931-10.116L333.238 163c1 5.143 1.19 10.506-.727 15.342-2.95 7.447-10.488 12.356-18.332 14.303-7.844 1.946-16.072 1.387-24.138.82-2.417-.17-5.417-.802-5.982-3.133-.445-1.827 1.005-3.586 2.56-4.68"/><path fill="#000090" d="M319.973 135.71c1.963 2.096 2.87 4.966 3.384 7.784 2.333 12.696-2.143 25.903-9.549 36.511s-17.527 19.005-27.728 26.997c-1.986 1.555-4.244 3.187-6.762 2.98-3.62-.294-5.744-4.065-7.23-7.357l-6.22-13.814c-1.088-2.418-2.203-5.007-1.81-7.624.611-4.065 4.513-6.677 7.91-9.017a92 92 0 0 0 23.929-24.11c2.189-3.232 4.188-6.626 6.85-9.49 4.202-4.502 12.08-8.36 17.226-2.86"/><path fill="#D38742" fill-rule="nonzero" d="M318.185 132.235c.336.758.709 1.526.782 2.358.072.832-.227 1.757-.945 2.16-.5.277-1.105.258-1.673.235l-9.524-.43c.386-3.792-.596-7.713-2.722-10.852-.56-.823-1.223-1.707-1.114-2.7.114-1.046 1.04-1.776 1.922-2.326a26.4 26.4 0 0 1 6.29-2.877c2.494-.767 3.776-1.701 4.167.98.69 4.726.827 8.966 2.817 13.452"/><path fill="#D38742" fill-rule="nonzero" d="M319.142 108.097c1.98 2.658 2.624 6.616.59 9.232-1.193 1.532-3.057 2.349-4.843 3.106l-9.59 4.06c-1.924.817-7.057.637-8.82-.494-3.775-2.413.013-17.763 6.417-22.866 4.728-3.765 13.065 2.69 16.246 6.962"/><path fill="#01015B" d="M323.566 119.446c-.724 1.727-1.477 3.5-2.8 4.835s-3.375 2.143-5.15 1.487c-2.263-.831-3.114-3.491-3.68-5.81-.682-2.817-2.795-.988-3.477-3.805-.29-1.196.841-7.052.243-8.133-1.445-2.6-4.436-4.078-5.9-6.668-1.785-3.154-.56-7.62 2.59-9.458s7.694-.735 9.63 2.332c1.411 2.24 1.304 5.218 2.92 7.324 1.356 1.769 3.077 1.437 4.83 2.443 5.515 3.164 2.627 11.075.794 15.453"/><path fill="#D38742" fill-rule="nonzero" d="M316.961 116.69c.205-1.858-1.589-3.646-3.587-3.69-1.998-.047-3.968 6.273-3.243 6.963 3.596.287 6.222-1.137 6.83-3.273M253.156 124.422c2.989 6.518 8.277 16.079 13.972 20.424 5.694 4.34 13.537 6.365 20.183 3.715 3.09-1.232 5.69-3.345 8.184-5.591l7.482 16.996c-2.96 1.621-6.036 3.03-9.265 4.076-8.793 2.859-18.89 2.868-26.843-1.857-5.159-3.067-9.094-7.903-11.948-13.189-2.86-5.285-6.134-15.907-7.912-21.651-.517-1.668 5.473-4.396 6.147-2.923"/><path fill="#000090" d="M297.754 140.721c3.466-3.067 7.387-6.033 12.029-6.614 10.568-1.32 12.95 9.871 7.005 16.44-2.284 2.522-5.819 4.227-8.666 6.05a83 83 0 0 1-5.786 3.403l-10.359-15.487c.991-.875 4.791-2.921 5.777-3.792"/><path fill="#3C79A6" fill-rule="nonzero" d="m252.345 118.05-8.659.944c-.51.055-1.09-.289-1.29-.772l-7.35-17.297c-.2-.483.051-.921.562-.975l8.659-.944c.51-.055 1.09.289 1.29.772l7.35 17.297c.204.483-.051.921-.562.975"/><path fill="#A2D1EB" fill-rule="nonzero" d="m253.347 118.05-8.66.944c-.51.055-1.091-.289-1.29-.772l-7.351-17.297c-.2-.483.051-.921.562-.975l8.66-.944c.51-.055 1.09.289 1.29.772l7.35 17.297c.2.483-.05.917-.561.975"/><path fill="#3C79A6" fill-rule="nonzero" d="m252.417 117.147-7.698.848c-.454.05-.971-.262-1.15-.695l-6.53-15.568c-.179-.432.046-.825.499-.879l7.698-.848c.453-.05.971.262 1.15.695l6.53 15.568c.179.437-.046.83-.5.879"/><path fill="#D38742" fill-rule="nonzero" d="M250.405 115.185c-.47-1.065-2.786-3.826-4.147-6.54-2.01-.457-.36 5.098.365 5.692-2.311-.198-6.831-2.3-8.28-6.337-.355.4-1.393 2.36-1.365 2.897.115 2.036 1.587 3.765 1.697 5.8.088 1.522-.512 2.398.097 3.788.969 2.233 3.086 3.689 5.157 4.919 1.075.636 2.19 1.258 3.418 1.484 6.79 1.258 4.52-8.405 3.058-11.703"/><path fill="#7672FF" fill-rule="nonzero" d="M161.079 267.964c-1.887-1.307-2.61-3.826-1.73-5.995l3.052-7.491c.565-1.386 2.192-1.905 3.408-1.09l10.1 6.777c.977.656 1.338 1.952.855 3.048l-4.155 9.375c-.6 1.354-2.218 1.83-3.408 1.005zM335.996 228l10.981-2.087-1.22-10.913-12.78 1.27z"/><path fill="#C9E0FF" fill-rule="nonzero" d="M107.977 264.213 113.56 246s17.596 7.075 19.975 9.787c2.378 2.711-5.582 18.213-5.582 18.213z"/><path fill="#D48743" fill-rule="nonzero" d="M84.78 273s6.595-6.01 8.197-9.828l-6.79-8.193a2.694 2.694 0 0 0-3.919-.251c-2.53 2.375-6.508 6.503-7.29 9.622z"/><path fill="#C9E0FF" fill-rule="nonzero" d="m367.416 256 4.561 9.694s-10.365 3.546-12.439 3.293c-2.074-.258-4.56-9.694-4.56-9.694z"/><path fill="#D48743" fill-rule="nonzero" d="M397.339 230.028s-1.01 9.191.347 13.248l10.83 1.69a2.785 2.785 0 0 0 3.199-2.498c.338-3.58.606-9.512-.911-12.468z"/><path fill="#7672FF" fill-rule="nonzero" d="m118.504 301.217-8.61.783-1.917-11.702 11-1.298zM600.947 52.957c-.601-4.453-2.048-12.37-5.194-17.957l-15.776 4.024 2.8 16.276c.292 1.695 1.877 2.871 3.61 2.68l11.588-1.281c1.881-.205 3.226-1.896 2.971-3.742"/><path fill="#C9E0FF" fill-rule="nonzero" d="M431.302 88.044c-2.877.7-9.582 2.427-15.363 4.583a1.453 1.453 0 0 0-.892 1.808l5.019 15.549c.257.8 1.149 1.22 1.948.917l14.017-5.338a1.456 1.456 0 0 0 .9-1.722l-3.837-14.744c-.197-.777-1.001-1.248-1.792-1.053"/><path fill="#F92385" fill-rule="nonzero" d="m550.839 164.003-12.037 5.707c-1.025.484-2.205.346-2.55-.295-1.41-2.644-4.601-8.877-4.247-10.584.353-1.707 9.557-5.204 13.57-6.653 1.016-.364 2.054-.152 2.315.48l4.028 9.684c.23.554-.225 1.26-1.08 1.66"/><path fill="#0067E2" fill-rule="nonzero" d="M600.637 184.183c1.481-2.048 4.06-5.832 5.209-8.8.3-.785.073-1.677-.556-2.227l-7.4-6.465a2.79 2.79 0 0 0-4.075.43c-2.192 2.912-5.569 7.893-5.838 11.271l10.035 6.308a1.95 1.95 0 0 0 2.625-.517M550.877 19.63c-2.247-1.098-6.365-2.973-9.45-3.592a1.96 1.96 0 0 0-2.064.921l-4.989 8.323a2.775 2.775 0 0 0 1.126 3.904c3.207 1.645 8.629 4.099 11.955 3.787l4.383-10.872a1.943 1.943 0 0 0-.961-2.471"/><path fill="#FFED33" fill-rule="nonzero" d="M621.977 118.908 609.761 123l-5.613-12.397a1.92 1.92 0 0 1 1.092-2.594l10.634-3.848a2.69 2.69 0 0 1 3.547 2.009zM370.52 97.331c-3.182-.314-8.576-.627-13.292.184a2.68 2.68 0 0 0-2.25 2.692l.179 8.469c.028 1.392 1.139 2.526 2.556 2.613l11.225.706c1.43.087 2.683-.931 2.857-2.324l1.162-9.357c.184-1.49-.913-2.836-2.438-2.983"/><path fill="#F92385" fill-rule="nonzero" d="M288.32 273.056c1.861-.339 3.64.898 3.95 2.747l1.934 11.504c.286 1.706-.783 3.348.773 2.942l-8.209 2.156c-5.041 1.326-6.889.266-7.376-1.52-.742-2.743-1.911-6.997-3.29-11.87-.532-1.894.692-3.843 2.644-4.204z"/><path fill="#FFF" fill-rule="nonzero" d="m327.755 267.879-4.265 8.064c-.57 1.074-1.99 1.392-2.981.664l-6.737-4.97a1.93 1.93 0 0 1-.5-2.582l3.85-6.123c.519-.83 1.585-1.157 2.5-.77l7.152 3.034a1.93 1.93 0 0 1 .981 2.683"/><path fill="#E0000F" fill-rule="nonzero" d="M507.275 57.193c-.269 1.344-1.74 2.136-3.093 1.675l-8.312-2.839c-1.975-.676-3.168-2.588-2.838-4.559l1.108-6.596c.23-1.365 1.697-2.203 3.074-1.75l10.183 3.318c1.104.358 1.759 1.433 1.537 2.52z"/><path fill="#FFED33" fill-rule="nonzero" d="m331.649 244.627-6.257 11.823c-.834 1.577-2.922 2.04-4.37.972l-9.878-7.29a2.82 2.82 0 0 1-.732-3.786l5.652-8.98c.764-1.216 2.326-1.697 3.663-1.128l10.487 4.446c1.557.656 2.214 2.467 1.435 3.943"/><path fill="#052E93" d="M374.909 214.968s-9.787.362-13.97-1.359l-.951-11.435c-.141-1.672 1.178-3.116 2.883-3.157 3.806-.085 10.096.08 13.106 1.887z"/><path fill="#C9E0FF" fill-rule="nonzero" d="M549.474 47.087c-4.393 1.107-13.296 3.497-21.06 6.438a2.234 2.234 0 0 0-1.333 2.76l6.872 21.71a2.864 2.864 0 0 0 3.766 1.81l17.94-6.97a3.65 3.65 0 0 0 2.206-4.298l-4.948-19.398a2.84 2.84 0 0 0-3.443-2.052M590.116 149.218c1.296-2.17 3.865-6.627 5.755-10.841a1.21 1.21 0 0 0-.594-1.59l-11.6-5.618c-.845-.41-1.867-.045-2.238.796l-4.297 9.806c-.41.937-.033 2.022.878 2.526l9.89 5.493a1.646 1.646 0 0 0 2.206-.572M426.743 259.818c1.28-.892 3.855-2.742 5.984-4.618a.716.716 0 0 0 .072-1.016l-5.058-5.837a1.03 1.03 0 0 0-1.458-.086l-4.906 4.394a1.173 1.173 0 0 0-.153 1.602l4.133 5.364c.326.412.945.504 1.386.197"/><path fill="#F92385" fill-rule="nonzero" d="m628.176 70.105-8.399 3.581a1.314 1.314 0 0 0-.64 1.838c1.524 2.795 5.164 9.299 6.58 10.295 1.412.995 7.18-2.361 9.638-3.88a1.315 1.315 0 0 0 .42-1.82l-5.973-9.509a1.316 1.316 0 0 0-1.626-.505"/><path fill="#D48743" fill-rule="nonzero" d="M578.977 4.831 575.624 15l-6.647-4.184L572.204 3z"/><path fill="#0066E3" fill-rule="nonzero" d="M520.983 195.885c1.021.198 2.324.234 2.826-.672.479-.86-.152-1.9-.773-2.667-5.225-6.485-22.909-22.326-26.568-21.516-3.41.75-4.479 2.948-2.504 5.8 4.014 5.8 22.936 18.273 27.019 19.055"/><path fill="#0066E3" fill-rule="nonzero" d="M523.088 200.485c1.456 1.537 3.511 2.657 5.627 2.5 1.7-.128 3.253-1.06 4.474-2.243.53-.514 1.037-1.304.655-1.937-.341-.56-1.134-.564-1.765-.757-1.438-.44-2.157-1.987-3.176-3.084A6.22 6.22 0 0 0 524.47 193c-1.318-.014-4.253.615-4.48 2.253-.211 1.515 2.125 4.208 3.098 5.232M522.977 291.366l8.51-4.366a378 378 0 0 1 4.034 12.57c.426 1.42.803 3.128-.084 4.286-1.137 1.481-4.044 1.59-4.945-.062-2.166-3.965-4.754-8.157-7.515-12.428"/><path fill="#00005C" fill-rule="nonzero" d="M535.068 311.225c-1.268-1.182-2.559-2.388-3.403-3.905-.83-1.49-1.84-2.846-1.668-4.548.806.369 2.484.326 3.15-.265.527-.468 1.735-4.222 2.378-4.5.461-.2 5.947 4.467 8.446 4.06 2.498-.406 4.814-1.536 7.215-2.359.834-.284 1.706-.539 2.587-.463.88.075 1.776.544 2.14 1.357.036.08.041.151.064.227l-11.023 10.609c-.615-.133-1.226-.336-1.822-.535q-3.21-1.078-6.423-2.165a26.3 26.3 0 0 0 4.73 6.08L540.21 316c-1.715-1.593-3.426-3.187-5.141-4.775"/><path fill="#0066E3" fill-rule="nonzero" d="m569.977 232.675 6.606-6.675a373 373 0 0 1 5.54 11.189c.626 1.321 1.241 2.926.549 4.207-.888 1.64-3.695 2.234-4.813.769-2.354-3.07-5.039-6.258-7.882-9.49"/><path fill="#00005C" fill-rule="nonzero" d="M580.941 247.567c-1.278-1.097-2.574-2.217-3.452-3.656-.86-1.408-1.61-2.962-1.501-4.612.8.334 2.156.503 2.784-.091.5-.47 1.846-3.903 2.465-4.2.441-.21 5.654 3.875 8.073 3.4 2.425-.48 4.644-1.654 6.955-2.527.81-.306 1.647-.58 2.506-.54.86.046 1.747.467 2.134 1.239.036.073.05.146.072.215l-10.393 10.63c-.605-.105-1.205-.279-1.792-.452-2.11-.626-4.226-1.248-6.336-1.87a25.4 25.4 0 0 0 4.821 5.709l-1.16 1.188a2408 2408 0 0 1-5.176-4.433M479.552 221.336c-7.37-.066-12.106-.974-16.001-6.894-4.975-7.568-5.783-18.68 4.306-19.607 20.002-1.836 45.4-11.23 67.52-4.35 17.132 5.328 33.35 26.319 36.922 30.837a383 383 0 0 1 6.678 8.704L573.508 238c-15.193-12.44-36.381-21.466-42.224-31.55.009.005-34.628 15.035-51.732 14.886"/><path fill="#00005C" fill-rule="nonzero" d="M515.043 256.925c1.01 3.242 1.692 7.235-.631 9.16-1.41 1.169-3.572 1.122-5.448.398-1.875-.725-3.539-2.041-5.161-3.339-7.024-5.595-55.135-28.712-53.798-48.034.599-8.666 21.74-12.304 29.643-5.757 10.467 8.675 22.592 18.578 29.164 30.457 3.858 6.981 3.9 9.608 6.231 17.115"/><path fill="#00005C" fill-rule="nonzero" d="M499.126 253.059c-1.607-10.218 10.256-14.006 15.79-4.922 4.363 7.156 11.435 22.844 16.435 35.15a299 299 0 0 1 3.626 9.472L526.053 297c-11.262-16.154-25.284-33.509-26.927-43.941M482.974 221.946c-3.354 2.566-22.489 25.682-36.375-8.311-10.961-26.838 5.81-26.996 12.682-23.898 6.425 2.897 14.037-5.069 20.549-2.036 20.32 9.466 7.493 31.02 3.144 34.245"/><path fill="#0066E3" fill-rule="nonzero" d="M487.914 149c.739 1.302 2.555 5.822 3.258 7.143 3.857 7.253 4.359 11.858 8.215 19.111.365.686.74 1.436.53 2.177-.329 1.177-2.04 1.765-3.414 1.51-1.374-.259-2.46-1.111-3.446-1.954-7.444-6.35-10.036-11.321-14.08-19.64z"/><path fill="#FF8D7E" fill-rule="nonzero" d="M455.26 129.009c.995-.21.653 3.308 1.522 3.84.82.497 1.054 1.575 1.157 2.535.68 6.303-7.86 13.424-13.169 12.541l-7.793-9.66s5.691-6.63 18.283-9.256"/><path fill="#FF8D7E" fill-rule="nonzero" d="M449.59 141.441c2.365-8.047 10.322-10.379 18.575-9.121 8.253 1.253 17.922 8.607 19.812 16.779l-8.942 8.272c3.023 7.813-4.705 9.525-5.54 12.174-1.709 5.426-.475 10.825-.475 10.825 3.96 3.053 7.979 7.07 13.13 11.894-17.88-4.508-46.343 16.7-42.43 13.382-1.42-6.138-8.362-33.727-2.292-56.474.132-.505 3.005-.96 3.005-.96s3.508-1.16 5.157-6.77"/><path fill="#0066E3" fill-rule="nonzero" d="M428.842 146c.975-.931 6.296-7.086 7.29-8l7.845 9.795c-.476.383-3.177 2.427-3.653 2.81-4.982 3.977-7.071 5.99-12.053 9.966-1.867 1.495-3.721 3.654-6.228 3.41-1.8-.17-3.531-1.444-3.948-3.294-.363-1.606.15-3.35 1.034-4.785.879-1.435 2.103-2.612 3.313-3.77q5.95-5.71 11.908-11.419"/><path fill="#0066E3" fill-rule="nonzero" d="M420.214 194.716c-.176 1.487-.236 2.383-1.719 2.275-1.149-.084-2.34-.517-2.423-1.674-.593-8.015 1.76-36.963 2.46-38.703 1.159-2.863 8.067-4.094 9.295.094 1.242 4.252-5.56 21.911-7.172 35.41"/><path fill="#0066E3" fill-rule="nonzero" d="M424.132 196.063q2.056 2.905 4.104 5.818c.01.517-.75.705-1.195.442-.444-.264-.694-.762-1.062-1.124s-1.04-.555-1.374-.155c-.336.395-.038.992.26 1.415q2.059 2.942 4.112 5.884c-1.024 1.58-3.286 2.008-5.071 1.378s-3.145-2.079-4.236-3.617a22.2 22.2 0 0 1-3.324-7.083c-.392-1.463-.614-3.09.085-4.43 1.799-3.41 6.252-.583 7.701 1.472"/><path fill="#7D4E5B" fill-rule="nonzero" d="M495.926 106.112c.335-2.887-.988-5.918-3.336-7.609-2.344-1.692-5.615-1.984-8.216-.732-1.328.64-2.518 1.65-3.975 1.858-1.911.274-3.699-.908-5.569-1.39-2.84-.737-6.722-.167-7.972 2.507-4.47 9.58-2.247 17.439-11.529 20.099-29.293 8.397-2.366 32.041 5.243 26.253 7.32-5.566.4-8.11 3.207-15.965 1.558-4.356 13.74-4.041 16.988-7.313 1.783-1.798 2.316-4.486 3.731-6.585 1.383-2.049 3.308-2.97 5.532-3.8 1.66-.621 3.327-2.049 4.356-3.467.828-1.13 1.379-2.465 1.54-3.856"/><path fill="#0066E3" fill-rule="nonzero" d="M475.977 126.688a22.3 22.3 0 0 0-2.11 9.21c-.01.983-.023 2.13-.768 2.735-.714.578-1.731.359-2.601.117-1.455-.41-2.945-.834-4.204-1.7-1.262-.872-2.275-2.279-2.316-3.854-.03-1.3.59-2.51 1.192-3.652l3.467-6.555c.34-.638.705-1.309 1.303-1.686 1.008-.634 2.378-.205 3.217.652.84.862 1.272 2.05 1.682 3.2z"/><path fill="#0066E3" fill-rule="nonzero" d="M481.997 126.597c1.52-1.029 2.601-2.538 3.645-4.02 1.44-2.04 2.879-4.115 3.697-6.457s.95-5.012-.202-7.216c-1.388-2.661-4.417-4.193-7.436-4.71-2.625-.448-5.541-.183-7.601 1.468-1.12.896-1.891 2.122-2.644 3.324-.983 1.56-1.98 3.17-2.333 4.962-.395 1.99.047 4.07.903 5.917.856 1.848 2.117 3.49 3.425 5.063.757.91 1.547 1.82 2.568 2.442 2.027 1.244 4.153.466 5.978-.773"/><path fill="#7D4E5B" fill-rule="nonzero" d="M480.427 109.256c-2.043 1.604-3.106 4.473-5.493 5.451-1.937.8-4.388-.098-5.4-1.975-.77-1.43-.706-3.245-.023-4.722s1.928-2.629 3.339-3.386c1.41-.762 2.982-1.152 4.558-1.388 2.423-.362 4.938-.357 7.288.363 1.484.456 2.9 1.218 4.072 2.267.884.794 2.534 2.45 2.153 3.823-.375 1.36-1.53 1.002-2.24.292-1.08-1.077-2.166-1.816-3.715-2.004a6.23 6.23 0 0 0-4.54 1.28"/><path fill="#0066E3" fill-rule="nonzero" d="M471.61 111.774c-.383-.284-.804-.55-1.282-.684-.473-.137-1.022-.129-1.448.104-.577.314-.832.955-.889 1.565-.142 1.536.819 2.986 2.569 3.218 1.324.176 2.2-.684 2.393-1.837.166-.99-.553-1.78-1.343-2.366"/><path fill="#F92385" d="M664.977 127s.351-7.842.918-10l9.082.103-.67 9.003z"/><path fill="#57FFE1" d="m613.617 27-13.64-12.729S606.957 4.261 610.9 0c0 0 11.881 8.65 15.077 14.238z"/><path fill="#00D1FF" d="m373.276 177 11.701-1.001s-1.972-11.602-3.298-13.398c-1.325-1.795-11.702 1.002-11.702 1.002zM503.737 87l6.24-.532s-1.052-6.19-1.76-7.147c-.707-.958-6.24.532-6.24.532z"/><path fill="#F92385" d="m77.162 297.943 5.693-1.795c1.61-.59 1.075-2.173.876-4.146l-.389-3.89c-.075-.775-.729-1.282-1.364-1.06l-6.237 2.18c-.511.178-.828.769-.753 1.388l.796 6.308c.1.764.753 1.243 1.378 1.015M353.715 145.734l4.66-3.718c1.288-1.12.24-2.14-.63-3.598l-1.717-2.888a1.086 1.086 0 0 0-1.635-.272l-5.035 4.242c-.409.348-.5.939-.216 1.391l2.938 4.61c.36.557 1.135.667 1.635.233"/><path fill="#00D1FF" d="m579.43 88.461-4.809-2.236a2.395 2.395 0 0 0-2.978.806l-2.492 3.553a.96.96 0 0 0 .36 1.412l6.023 2.91a.93.93 0 0 0 1.188-.332l3.099-4.714a.966.966 0 0 0-.391-1.399"/><path fill="#57FFE1" fill-rule="nonzero" d="m294.624 222 6.353 9.424L291.33 238l-6.353-9.424z"/><path fill="#E0000F" fill-rule="nonzero" d="M396.163 123.002a.76.76 0 0 0-.649.426c-.492 1.12-1.156 3.119-1.507 4.208-.127.4.166.809.624.861l4.2.497c.05.004.103.009.152.004a.75.75 0 0 0 .668-.474l1.293-3.748c.127-.373-.117-.764-.537-.86l-4.01-.893a.7.7 0 0 0-.234-.021"/><path fill="#00D0FF" fill-rule="nonzero" d="m529.597 124.721 8.651-8.978a5.71 5.71 0 0 1 7.22-.82l8.504 5.533a2.215 2.215 0 0 1 .412 3.365l-10.741 11.478a2.235 2.235 0 0 1-2.894.306l-10.82-7.538a2.206 2.206 0 0 1-.332-3.346"/><path fill="#00D0FF" d="M145.184 287s7.04 6.535 8.793 10.726l-7.035 9.16c-1.029 1.337-2.918 1.497-4.129.336-2.704-2.583-6.96-7.083-7.836-10.518z"/><path fill="#D48743" fill-rule="nonzero" d="M640.78 152s6.595-6.01 8.197-9.828l-6.79-8.193a2.694 2.694 0 0 0-3.919-.251c-2.53 2.375-6.508 6.503-7.29 9.622z"/></g></svg>