<?xml version="1.0" encoding="utf-8"?>
<!-- Generator: Adobe Illustrator 25.2.1, SVG Export Plug-In . SVG Version: 6.00 Build 0)  -->
<svg version="1.1" id="Calque_2_1_" xmlns="http://www.w3.org/2000/svg" xmlns:xlink="http://www.w3.org/1999/xlink" x="0px"
	 y="0px" viewBox="0 0 148.4 133.9" style="enable-background:new 0 0 148.4 133.9;" xml:space="preserve">
<style type="text/css">
	.st0{fill:#000091;}
	.st1{fill:#E1000F;}
	.st2{fill:#9D9D9C;}
</style>
<g>
	<path class="st0" d="M62.3,47.1c0.6-0.6,1.2-1.2,1.7-1.8l0,0c1.1-1.2,2.1-2.4,3.4-3.4c0.4-0.3,0.7-0.6,1.1-0.9
		c0.1-0.1,0.1-0.3,0.2-0.4c-0.5,0.2-0.8,0.6-1.3,0.8c-0.1,0-0.2-0.1-0.1-0.2c0.4-0.3,0.7-0.5,1.1-0.8c0,0,0,0-0.1,0
		s-0.1-0.1-0.1-0.2c-1.3-0.2-2.3,0.7-3.2,1.5c-0.2,0.1-0.4-0.1-0.5-0.1c-1.5,0.5-2.6,1.8-4.1,2.4c0-0.1,0-0.1,0-0.2
		c-0.6,0.2-1.2,0.6-1.8,0.7c-0.9,0.2-1.7,0.1-2.5,0.1c-1.2,0.1-2.4,0.4-3.7,0.7h-0.1c-0.7,0.2-1.3,0.4-1.9,0.8c0,0,0,0-0.1,0
		c-0.1,0.1-0.1,0.1-0.1,0.2c-0.2,0.2-0.4,0.5-0.7,0.6c-0.6,0.3-1.1,0.9-1.7,1.3c0,0-0.1,0-0.2,0.1c-0.5,0.5-1.1,1-1.6,1.6
		c0,0-0.2,0.1-0.3,0l0,0c0,0,0-0.1,0.1-0.1c0.1-0.1,0.2-0.3,0.3-0.4c0.1-0.2,0.2-0.3,0.3-0.5s0.3-0.4,0.4-0.6c0-0.1,0-0.1,0-0.1
		l-0.1-0.1c0.5-0.5,1.1-0.9,1.7-1.3l0,0c-0.1,0-0.2,0-0.1-0.1c0.1-0.1,0.1-0.2,0.2-0.3v-0.1l-0.1-0.1c-0.2,0.1-0.3,0.2-0.5,0.3
		c-0.2,0.2-0.4,0.7-0.8,0.7c0,0-0.1,0-0.2,0h-0.1l0,0l0,0l0,0v-0.1V47c0,0,0,0,0-0.1c0,0,0-0.1,0.1-0.1c0,0,0-0.1,0.1-0.1
		c0-0.1,0.1-0.1,0.1-0.2c0,0,0-0.1,0.1-0.1c0-0.1,0.1-0.1,0.1-0.2c0-0.1,0-0.2-0.1-0.2c0.2-0.2,0.4-0.4,0.7-0.6l0,0
		c0.4-0.2,0.8-0.4,1.2-0.6c0.1,0,0.1-0.1,0.2-0.1c-0.6,0.2-1.1,0.5-1.6,0.8c0,0-0.1,0.1-0.2,0.1c0,0-0.1,0-0.3-0.1c0,0,0,0,0-0.1
		c0.1-0.2,0.4-0.3,0.6-0.5c0.1,0,0.2,0,0.2,0.1c3.2-2.5,7.7-1.9,11.4-3.2c0.3-0.2,0.6-0.4,0.9-0.6c0.5-0.2,0.9-0.7,1.5-1
		c0.8-0.6,1.4-1.3,1.7-2.3c0-0.1-0.1-0.2-0.1-0.2c-1.3,1.4-2.8,2.5-4.4,3.3c-2.1,1.1-4.4,0.9-6.7,1.2c0.1-0.2,0.3-0.2,0.5-0.2
		c0-0.3,0.2-0.4,0.4-0.6c0.1,0,0.2,0,0.3,0s0.1-0.2,0.2-0.2c0.2,0,0.5-0.1,0.4-0.1c-0.3-0.4-0.9,0.3-1.4,0c0.2-0.2,0.1-0.5,0.3-0.6
		c0.1,0,0.3,0,0.4,0c0-0.2,0.2-0.4,0.2-0.4c1.5-0.9,2.9-1.6,4.3-2.4c-0.3,0-0.5,0.3-0.8,0.1c0.2,0,0-0.3,0.2-0.3
		c1.1-0.3,2-0.9,3.1-1.3c-0.4,0-0.7,0.3-1.1,0c0.2-0.1,0.3-0.3,0.6-0.3c0-0.1,0-0.2,0-0.3s0.1-0.1,0.2-0.1c-0.1,0-0.2-0.1-0.2-0.1
		c0.1-0.2,0.4-0.1,0.6-0.3c-0.1,0-0.3,0-0.3-0.1c0.3-0.4,0.8-0.5,1.3-0.6c-0.1-0.2-0.4,0-0.4-0.2c0-0.1,0.1-0.1,0.2-0.1
		c-0.1,0-0.1,0-0.2,0C60.9,34,61,33.8,61,33.7c0.6-0.7,0.6-1.6,0.9-2.4c-0.1,0-0.2,0-0.2-0.1c-1,1.1-2.6,1.5-4.1,1.9
		c-0.1,0-0.4,0-0.5,0C56.7,33,56,33,55.5,32.7c-0.4-0.2-0.6-0.5-1-0.8c-0.8-0.5-1.6-0.9-2.5-1.2c-2.5-0.8-5.1-1.2-7.8-1.1
		c1.1-0.6,2.3-0.7,3.5-1c1.7-0.5,3.3-1.1,5.1-1c-0.3-0.1-0.7,0-1,0c-1.4-0.1-2.8,0.3-4.3,0.6c-1,0.2-1.9,0.6-2.9,0.8
		c-0.6,0.2-0.9,0.8-1.6,0.7c0,0,0-0.2,0-0.3c1-1.2,2.2-2.4,3.8-2.5c1.8-0.3,3.5,0,5.3,0.2c1.3,0.1,2.5,0.4,3.8,0.7
		c0.5,0,0.6,0.8,1,0.9c0.6,0.2,1.2,0,1.8,0.4c0-0.2-0.1-0.4,0-0.6c0.4-0.4,0.9,0.1,1.3-0.1c0.8-0.5-0.7-1.4-1.1-2.1
		c0-0.1,0.1-0.2,0.1-0.2c0.8,0.7,1.4,1.5,2.4,2c0.5,0.2,1.7,0.5,1.5-0.1c-0.5-1.1-1.5-2-2.3-3c0-0.1,0-0.3,0-0.4
		c-0.2,0-0.2-0.1-0.3-0.2c0-0.1,0-0.3,0-0.4c-0.4-0.2-0.3-0.6-0.5-0.9c-0.3-0.5-0.1-1.2-0.3-1.8c-0.2-0.6-0.3-1.1-0.4-1.7
		c-0.3-1.7-0.7-3.2-0.9-4.8c-0.2-1.9,1.1-3.4,2-5.1c0.7-1.2,1.5-2.4,2.8-3.2C63.4,5.1,64.2,4,65,3s2.1-1.6,3.1-2
		c1.4-0.6,2.7-1,2.7-1H1.6v53.4h49c1.9-1.4,3.8-2,6.5-3.4C58.4,49.4,61.3,48.1,62.3,47.1z M46.8,39.8c-0.2,0-0.6,0.1-0.5-0.1
		c0.1-0.5,0.8-0.5,1.2-0.7c0.2-0.1,0.5-0.3,0.7-0.2c0.2,0.3,0.5,0.2,0.7,0.4C48.3,39.8,47.5,39.5,46.8,39.8z M31.4,37.6
		c0,0-0.1-0.1-0.1-0.2c1.3-1.7,2.3-3.3,3.2-5.1c1.3-0.7,2.4-1.7,3.4-2.8c1.7-1.8,3.5-3.4,5.6-4.4c0.8-0.3,1.8-0.2,2.6,0.1
		c-0.3,0.4-0.8,0.3-1.2,0.6c-0.1,0-0.2,0-0.3-0.1c0.1-0.1,0.1-0.2,0.1-0.3c-1,1.1-2.4,1.6-3.2,2.9c-0.6,1-1,2.3-2.3,2.6
		c-0.4,0.1,0.1-0.3-0.1-0.2C36,32.6,33.8,34.9,31.4,37.6z M39.7,31c-0.1,0.2-0.2,0.2-0.3,0.4c-0.1,0.2-0.2,0.3-0.4,0.4
		c-0.1,0-0.2,0-0.2-0.1c0.1-0.4,0.4-0.8,0.8-0.9C39.7,30.8,39.7,30.9,39.7,31z M44.4,46.1c0,0.1-0.1,0.2-0.2,0.3
		c0.1,0,0.2,0.1,0.1,0.2c-0.2,0.2-0.5,0.4-0.8,0.5c0,0-0.1,0-0.2,0c-0.1,0.1-0.2,0.2-0.4,0.4c-0.1,0.1-0.7,0-0.5-0.1
		c0.3-0.2,0.5-0.5,0.7-0.7c0.1-0.1,0.3-0.3,0.4-0.4c0.1-0.1,0.1-0.2,0.2-0.2C44,45.9,44.5,45.9,44.4,46.1z M42.6,45.3L42.6,45.3
		c-0.4,0.3-0.8,0.6-1.2,0.8c-0.4,0.3-0.9,0.4-1.3,0.7l0,0c0,0-0.1-0.1-0.2,0c-0.4,0.2-0.7,0.5-1,0.8l-0.1,0.1l0,0l0,0l-0.1,0.1l0,0
		l0,0c-0.1,0.1-0.1,0.1-0.2,0.2c-0.1,0.1-0.1,0.1-0.1,0.1c-0.1,0-0.2,0-0.2-0.1l0,0c-0.1,0-0.1,0.1-0.2,0.1c-0.1,0-0.1,0.1-0.2,0.1
		c0,0,0,0-0.1,0h-0.1c-0.1,0.1-0.2,0.2-0.4,0.3c-0.2,0.2-0.4,0.4-0.6,0.6l0,0l0,0l0,0l0,0l0,0c0,0,0,0.1-0.1,0.1l0,0c0,0,0,0-0.1,0
		c0,0,0,0,0-0.1l0,0c0-0.1-0.1-0.1-0.1-0.2l0,0c0,0,0,0,0-0.1c0.1-0.1,0.2-0.2,0.3-0.4l0,0l0.1-0.1c0.1-0.1,0.1-0.1,0.2-0.2
		c0,0,0-0.1,0.1-0.1c0.1-0.1,0.2-0.3,0.3-0.4l0,0c0,0,0,0,0-0.1s0.1-0.1,0.1-0.2c0-0.1,0.1-0.1,0.1-0.2l0,0l0,0l0,0
		c0-0.1,0.1-0.2,0.1-0.2l0,0c0,0,0,0,0-0.1v-0.1l0,0l0,0v-0.1c0,0,0,0,0-0.1c0.1-0.2,0.2-0.4,0.4-0.5l0,0c-0.1,0.1-0.2,0.2-0.4,0.3
		c-0.1,0.1-0.3-0.1-0.2-0.2c0.1-0.1,0.2-0.1,0.2-0.2l0,0c0.2-0.2,0.3-0.4,0.5-0.5c0.1-0.1,0.2-0.2,0.3-0.2l0,0
		c0.1-0.1,0.1-0.2,0.2-0.3l0,0c1-0.9,2.6-0.9,3.9-1.5c0.5-0.2,1.1,0.1,1.6,0c0.3,0,0.6,0,0.9,0.2C44.3,44.2,43.4,44.7,42.6,45.3z
		 M44.7,38.2c-0.1-0.1,0.3,0,0.4-0.2c-0.3,0-0.5,0-0.8,0c-0.1,0-0.1-0.1-0.1-0.2c-0.5,0.1-1.1,0.3-1.6,0.4c-0.7,0.2-1.3,0.7-2.1,0.9
		c-1.1,0.4-2,1.3-3.2,1.7c-0.1,0-0.1-0.1-0.1-0.2c0.1-0.3,0.5-0.4,0.7-0.7c0-0.1,0-0.2-0.1-0.2c0.8-1.1,1.9-1.7,2.9-2.6
		c0-0.1,0-0.2,0-0.3c0.3-0.4,0.8-0.6,1-1.1c0.1-0.3,0.5-0.7,1-0.9c-0.1-0.1-0.3-0.1-0.3-0.3c-0.4,0-0.8,0.2-1.2-0.1
		c0.2-0.2,0.4-0.3,0.6-0.4c-0.1,0-0.2-0.1-0.2-0.1c-0.1-0.2,0.2-0.4,0.5-0.5c0.4-0.1,0.9-0.1,1.2-0.4c-0.7-0.1-1.5,0.2-2.2-0.2
		c0.5-1.3,1.3-2.4,2.5-3c0.1,0,0.3,0,0.3,0.1c0,0.5-0.3,0.9-0.8,1c0.8,0.2,1.6,0.2,2.4,0.6c-0.1,0.2-0.3,0.1-0.4,0.1
		c0.5,0.3,1.1,0.1,1.6,0.5c-0.3,0.3-0.6,0-0.9,0c3.1,0.9,6.5,1.6,9.1,3.6c-2.2,1.1-4.5,1.6-7,2.1c-0.3,0-0.5,0-0.8-0.1
		c0,0.1,0,0.3-0.1,0.3c-0.4,0-0.7,0-1,0.2C45.6,38.4,45,38.5,44.7,38.2z"/>
	<g>
		<path class="st1" d="M148.4,0H91c0,0,0.1,0,0.5,0.3C92,0.5,92.6,0.8,93,1c0.7,0.4,1.5,0.9,1.9,1.6c0.2,0.3,0.5,0.9,0.3,1.3
			c-0.2,0.5-0.3,1.3-0.8,1.5c-0.6,0.3-1.4,0.3-2.1,0.2c-0.4,0-0.8-0.1-1.2-0.2C92.6,6.1,94,6.8,95,8.2c0.1,0.2,0.5,0.3,0.9,0.3
			C96,8.5,96,8.7,96,8.8c-0.2,0.2-0.4,0.3-0.3,0.6c0.1,0,0.2,0,0.3,0c0.5-0.2,0.4-1.2,1.1-0.9c0.5,0.3,0.7,1,0.4,1.5
			c-0.4,0.4-0.8,0.7-1.2,1c-0.1,0.2-0.1,0.5,0,0.7c0.3,0.4,0.4,0.8,0.5,1.2c0.3,0.7,0.4,1.5,0.7,2.2c0.4,1.5,0.8,3,0.7,4.5
			c0,0.8-0.4,1.5-0.1,2.3c0.2,0.8,0.7,1.4,1.1,2.1c0.4,0.6,0.8,1,1.1,1.6c0.6,1,1.7,2,1.2,3.2c-0.3,0.7-1.4,0.6-2.1,1
			c-0.6,0.5-0.1,1.3,0.2,1.8c0.5,0.9-0.6,1.5-1.3,1.8c0.2,0.3,0.6,0.2,0.7,0.4c0.1,0.5,0.6,0.8,0.3,1.3c-0.4,0.6-1.6,0.9-1,1.8
			c0.4,0.7,0.1,1.5-0.1,2.2c-0.3,0.9-1.1,1.3-1.8,1.5c-0.6,0.2-1.3,0.2-1.9,0.1c-0.2-0.1-0.4-0.2-0.6-0.2c-1.7-0.2-3.4-0.7-5.1-0.7
			c-0.5,0.1-1,0.2-1.4,0.4c-0.5,0.3-0.9,0.7-1.2,1.1l0,0c-0.1,0.1-0.1,0.2-0.2,0.2c0,0.1-0.1,0.1-0.1,0.2l-0.1,0.1
			c-0.3,0.4-0.6,0.8-0.8,1.2v0.1l-0.1,0.1c-0.3,0.6-0.6,1.2-0.8,1.9c-0.7,2.3-0.4,4.3,0.1,4.8c0.1,0.1,3.3,1.1,5.6,2.1
			c1,0.5,1.8,0.8,2.4,1.2h56.4V0H148.4z"/>
	</g>
	<path class="st2" d="M94.4,19.5c0.4,0.1,1,0.1,1,0.3c-0.2,0.8-1.4,1-2,1.8h-0.3c-0.3,0.2-0.2,0.7-0.5,0.7c-0.3-0.1-0.6,0-0.9,0.1
		c0.4,0.4,0.9,0.7,1.5,0.6c0.1,0,0.3,0.2,0.3,0.4c0,0,0.1,0,0.2-0.1c0.1,0,0.2,0,0.2,0.1v0.4c-0.3,0.4-0.8,0.2-1.2,0.3
		c0.8,0.2,1.6,0.2,2.3,0c0.6-0.2,0-1.2,0.4-1.7c-0.2,0,0-0.3-0.2-0.3c0.2-0.2,0.4-0.5,0.6-0.6c0.2,0,0.5-0.1,0.6-0.3
		c0-0.2-0.4-0.3-0.3-0.5c0.6-0.4,1.1-1,0.9-1.6c-0.1-0.3-0.9-0.3-1.4-0.5s-1.1,0-1.7,0.1c-0.5,0-1,0.3-1.5,0.4
		c-0.7,0.2-1.3,0.6-1.9,1c0.7-0.3,1.4-0.4,2.2-0.6C93.3,19.5,93.8,19.3,94.4,19.5z"/>
</g>
<g>
	<path class="st1" d="M3.4,126.2c1.3,1.6,2.8,2.7,4.7,2.7c1.6,0,2.5-0.9,2.5-2.1c0-3.6-9.5-2.1-9.5-9.5c0-3.6,3-6.3,7.3-6.3
		c3.2,0,6,1.5,7.5,3.5l-3.5,3.1c-1.1-1.3-2.4-2.4-4-2.4c-1.5,0-2.4,0.7-2.4,1.9c0,3.5,9.5,2.1,9.5,9.3c-0.1,4.3-3.5,6.7-7.4,6.7
		c-3.7,0-6.3-1.5-8.2-3.8L3.4,126.2z"/>
	<path class="st1" d="M29.3,133.1c-7.3,0-11.4-5.1-11.4-11c0-6.1,3.8-11.1,10.5-11.1c5.7,0,9.4,3.8,9.4,9.2c0,1.1-0.2,2.2-0.3,2.9
		H23.3c0.3,3.4,2.7,5.4,6.2,5.4c2.2,0,4.1-1,5.2-2.4l3.7,2.9C36.4,131.5,33.2,133.1,29.3,133.1z M23.6,119.2h9.2
		c-0.1-2-1.6-3.9-4.3-3.9C26,115.3,24.3,116.6,23.6,119.2z"/>
	<path class="st1" d="M42.1,111.8h5.2v2c1.3-1.4,3.1-2.4,5.4-2.4c0.7,0,1.3,0.1,1.8,0.3v5.4c-0.6-0.2-1.3-0.3-2.3-0.3
		c-2.5,0-4.1,1.4-4.9,2.6v12.8h-5.2V111.8z"/>
	<path class="st1" d="M60.7,111.8l5.3,14.6l5.3-14.6h5.6l-7.5,20.5h-6.8l-7.4-20.5H60.7z"/>
	<path class="st1" d="M78.5,104.9c0-1.8,1.5-3.4,3.4-3.4c1.8,0,3.3,1.5,3.3,3.4c0,1.8-1.5,3.4-3.3,3.4
		C80,108.3,78.5,106.7,78.5,104.9z M79.3,111.8h5.2v20.5h-5.2V111.8z"/>
	<path class="st1" d="M104.1,125.9l4.1,3.1c-1.9,2.5-4.9,4.1-8.7,4.1c-7.1,0-11.3-5.1-11.3-11c0-6,4.2-11.1,11.3-11.1
		c3.7,0,6.7,1.6,8.7,4.1l-4.1,3.1c-1-1.4-2.5-2.4-4.6-2.4c-3.4,0-5.8,2.6-5.8,6.2s2.5,6.2,5.9,6.2
		C101.5,128.3,103.1,127.3,104.1,125.9z"/>
	<path class="st1" d="M121.1,133.1c-7.3,0-11.4-5.1-11.4-11c0-6.1,3.8-11.1,10.5-11.1c5.7,0,9.4,3.8,9.4,9.2c0,1.1-0.2,2.2-0.3,2.9
		H115c0.3,3.4,2.7,5.4,6.2,5.4c2.2,0,4.1-1,5.2-2.4l3.7,2.9C128.1,131.5,124.9,133.1,121.1,133.1z M115.3,119.2h9.2
		c-0.1-2-1.6-3.9-4.3-3.9C117.7,115.3,116,116.6,115.3,119.2z"/>
	<path class="st1" d="M135.4,126.2c1.3,1.6,2.8,2.7,4.7,2.7c1.6,0,2.5-0.9,2.5-2.1c0-3.6-9.5-2.1-9.5-9.5c0-3.6,3-6.3,7.3-6.3
		c3.2,0,6,1.5,7.5,3.5l-3.5,3.1c-1.1-1.3-2.4-2.4-4-2.4c-1.5,0-2.4,0.7-2.4,1.9c0,3.5,9.5,2.1,9.5,9.3c-0.1,4.3-3.5,6.7-7.4,6.7
		c-3.7,0-6.3-1.5-8.2-3.8L135.4,126.2z"/>
</g>
<g>
	<path class="st0" d="M1.6,66.7h16.6v4.9H7.4v6.6h9.2v4.9H7.4v12H1.6V66.7z"/>
	<path class="st0" d="M21.7,74.7h5.2v2c1.3-1.4,3.1-2.4,5.4-2.4c0.7,0,1.3,0.1,1.8,0.3V80c-0.6-0.2-1.3-0.3-2.3-0.3
		c-2.5,0-4.1,1.4-4.9,2.6v12.8h-5.2C21.7,95.1,21.7,74.7,21.7,74.7z"/>
	<path class="st0" d="M36.3,89.8c0-3.1,2.4-5.5,6.8-6.3l6.2-1.1v-0.5c0-2.2-1.6-3.5-3.9-3.5c-2,0-3.7,0.9-4.6,2.4L37,77.9
		c1.8-2.5,4.9-4.1,8.6-4.1c5.9,0,9,3.5,9,8V95h-5.2v-1.9C48,94.9,45.6,96,43.2,96C39.1,96,36.3,93.6,36.3,89.8z M44.2,91.8
		c2.3,0,4-1.2,5-2.9v-2.8L44.4,87c-2.2,0.4-3,1.3-3,2.6C41.4,90.9,42.5,91.8,44.2,91.8z"/>
	<path class="st0" d="M59.4,74.7h5.2v1.6c1.4-1.4,3.3-2.4,6.1-2.4c4.4,0,8,3,8,9.1v12.2h-5.2v-12c0-2.7-1.5-4.4-4-4.4
		c-2.6,0-4,1.7-4.8,3v13.4h-5.2L59.4,74.7L59.4,74.7z"/>
	<path class="st0" d="M98,88.7l4.1,3.1c-1.9,2.5-4.9,4.1-8.7,4.1c-7.1,0-11.3-5.1-11.3-11c0-6,4.2-11.1,11.3-11.1
		c3.7,0,6.7,1.6,8.7,4.1L98,81.1c-1-1.4-2.5-2.4-4.6-2.4c-3.4,0-5.8,2.6-5.8,6.2s2.5,6.2,5.9,6.2C95.4,91.1,97,90.1,98,88.7z"/>
	<path class="st0" d="M114.9,96c-7.3,0-11.4-5.1-11.4-11c0-6.1,3.8-11.1,10.5-11.1c5.7,0,9.4,3.8,9.4,9.2c0,1.1-0.2,2.2-0.3,2.9
		h-14.3c0.3,3.4,2.7,5.4,6.2,5.4c2.2,0,4.1-1,5.2-2.4l3.7,2.9C122,94.4,118.8,96,114.9,96z M109.2,82.1h9.2c-0.1-2-1.6-3.9-4.3-3.9
		C111.6,78.2,109.9,79.4,109.2,82.1z"/>
</g>
</svg>
