<?xml version="1.0" encoding="utf-8"?>
<!-- Generator: Adobe Illustrator 25.2.0, SVG Export Plug-In . SVG Version: 6.00 Build 0)  -->
<svg version="1.1" id="Calque_1" xmlns="http://www.w3.org/2000/svg" xmlns:xlink="http://www.w3.org/1999/xlink" x="0px" y="0px"
	 viewBox="0 0 177.4 80.5" style="enable-background:new 0 0 177.4 80.5;" xml:space="preserve">
<style type="text/css">
	.st0{display:none;}
	.st1{display:inline;}
	.st2{fill:#273375;}
</style>
<g id="Calque_1_1_" class="st0">
	<g class="st1">
		<g>
			<defs>
				<path id="SVGID_1_" d="M-150.6-126.5l0.1-0.4c-1.6-0.3-1.8-0.3-1.1-2l0.6-1.6h1.3c0.8,0,0.8,0.3,0.7,1.2h0.4l1-2.8h-0.4
					c-0.4,0.7-0.7,1.2-1.5,1.2h-1.3l0.9-2.3c0.3-0.8,0.4-1,1.5-1h0.3c1.1,0,1.2,0.3,1.2,1.5h0.4l0.4-1.9h-6.1l-0.1,0.4
					c1.3,0.3,1.4,0.4,0.8,2l-1.3,3.5c-0.6,1.6-0.8,1.7-2.3,2l-0.1,0.4h4.6V-126.5z M-142.2-131.3c0.2-0.8,0.1-1.4-0.5-1.4
					c-0.7,0-1,0.5-1.7,2.1v-0.9c0-0.6-0.2-1.2-0.8-1.2c-0.7,0-1.3,1-1.7,2h0.3c0.3-0.5,0.6-0.7,0.8-0.7c0.3,0,0.4,0.4,0,1.4
					l-1.3,2.9c-0.2,0.5,0,0.9,0.5,0.9c0.3,0,0.5-0.1,0.6-0.4l1.3-3.3c0.4-0.4,0.7-0.8,1.1-1.2L-142.2-131.3L-142.2-131.3z
					 M-137.1-133h-0.5l-0.6,0.6h-0.1c-2.4,0-4.9,3-4.9,5.3c0,0.5,0.3,0.9,0.9,0.9c0.7,0,1.4-1,2.1-2.1v0.4c-0.1,1.1,0.2,1.7,0.8,1.7
					c0.7,0,1.3-1,1.7-2h-0.3c-0.3,0.5-0.6,0.7-0.9,0.7c-0.2,0-0.4-0.4,0-1.4L-137.1-133z M-142.1-128.2c0-1.5,1.6-3.4,2.5-3.4
					c0.2,0,0.4,0,0.6,0.1l-0.9,2.5c-0.5,0.7-1.4,1.5-1.8,1.5C-141.9-127.5-142.1-127.7-142.1-128.2 M-136.4-131.8h1.1l-1.7,4.7
					c-0.2,0.4,0.1,0.8,0.5,0.8c1.2,0,2.7-1,3.2-2.5h-0.3c-0.4,0.6-1.4,1.3-2.1,1.4l1.6-4.4h1.6l0.2-0.7h-1.6l0.6-1.7h-0.6l-1.1,1.7
					l-1.3,0.2L-136.4-131.8L-136.4-131.8z M-128.9-128.6h-0.4c-0.5,0.6-1.1,1.1-1.6,1.1c-0.6,0-0.8-0.3-0.8-1.1c0-0.3,0-0.6,0.1-0.9
					l3.3-1.1c0.6-1.5-0.1-2.2-1-2.2c-1.5,0-3.3,2.7-3.3,4.9c0,1,0.5,1.6,1.2,1.6C-130.6-126.3-129.6-127.2-128.9-128.6 M-130-131.9
					c0.4,0,0.8,0.3,0.6,1.1l-2,0.5C-131.1-131.2-130.5-131.9-130-131.9 M-123.1-131.3c0.2-0.8,0.1-1.4-0.5-1.4c-0.7,0-1,0.5-1.7,2.1
					v-0.9c0-0.6-0.2-1.2-0.8-1.2c-0.7,0-1.3,1-1.7,2h0.3c0.3-0.5,0.6-0.7,0.9-0.7s0.4,0.4,0,1.4l-1.3,2.8c-0.2,0.5,0,0.9,0.5,0.9
					c0.3,0,0.5-0.1,0.6-0.4l1.3-3.3c0.4-0.4,0.7-0.8,1.1-1.2h1.3V-131.3z M-121.8-131.4c0.3,0,0.4,0.4,0,1.4l-1.3,2.8
					c-0.2,0.5,0,0.9,0.5,0.9c0.3,0,0.5-0.1,0.6-0.4l1.3-3.3c0.6-0.7,1.7-1.5,2.1-1.5c0.3,0,0.3,0.3,0.1,0.7l-1.9,3.7
					c-0.2,0.4,0.1,0.8,0.5,0.8c0.9,0,2.1-0.8,2.5-2h-0.3c-0.3,0.4-0.8,0.9-1.3,1l1.7-3.3c0.2-0.4,0.3-0.8,0.3-1.1
					c0-0.5-0.3-0.9-0.9-0.9c-0.8,0-1.5,0.9-2.5,2.1v-0.9c0-0.6-0.2-1.2-0.8-1.2c-0.7,0-1.3,1-1.7,2h0.3
					C-122.3-131.2-122-131.4-121.8-131.4 M-113-133.9c0.4,0,0.7-0.3,0.7-0.7s-0.3-0.7-0.7-0.7c-0.4,0-0.7,0.3-0.7,0.7
					C-113.8-134.3-113.4-133.9-113-133.9 M-113.2-132c0.1-0.4-0.2-0.7-0.4-0.7c-0.9,0-2.1,0.8-2.5,2h0.3c0.3-0.4,0.8-0.9,1.3-1
					l-1.8,4.7c-0.2,0.4,0.2,0.7,0.4,0.7c0.9,0,1.9-0.9,2.4-2h-0.3c-0.3,0.4-0.8,0.9-1.3,1L-113.2-132z M-112.1-131.8h1.1l-1.7,4.7
					c-0.2,0.4,0.1,0.8,0.5,0.8c1.2,0,2.7-1,3.2-2.5h-0.3c-0.4,0.6-1.4,1.3-2.1,1.4l1.6-4.4h1.6l0.2-0.7h-1.6l0.6-1.7h-0.6l-1.1,1.7
					l-1.3,0.2L-112.1-131.8L-112.1-131.8z M-105.1-133.5l1.9-1.7v-0.2h-1.2l-1.1,1.9H-105.1z M-104.6-128.6h-0.4
					c-0.5,0.6-1.1,1.1-1.6,1.1c-0.6,0-0.8-0.3-0.8-1.1c0-0.3,0-0.6,0.1-0.9l3.3-1.1c0.6-1.5-0.1-2.2-1-2.2c-1.5,0-3.3,2.7-3.3,4.9
					c0,1,0.5,1.6,1.2,1.6C-106.3-126.3-105.4-127.2-104.6-128.6 M-105.7-131.9c0.4,0,0.8,0.3,0.6,1.1l-2,0.5
					C-106.8-131.2-106.2-131.9-105.7-131.9"/>
			</defs>
			<clipPath id="SVGID_2_">
				<use xlink:href="#SVGID_1_"  style="overflow:visible;"/>
			</clipPath>
		</g>
	</g>
	<g class="st1">
		<g>
			<defs>
				<path id="SVGID_3_" d="M-148.3-149.1l1.9-1.3v-0.2h-1.2l-1.1,1.6L-148.3-149.1L-148.3-149.1z M-149.3-144.2
					c0.8,0,0.8,0.3,0.7,1.2h0.4l1-2.8h-0.4c-0.4,0.7-0.7,1.2-1.5,1.2h-1.7l0.8-2.3c0.3-0.8,0.4-1,1.5-1h0.8c1.1,0,1.2,0.3,1.2,1.5
					h0.4l0.4-1.9h-6.5l-0.1,0.4c1.3,0.3,1.4,0.4,0.8,2l-1.3,3.5c-0.6,1.6-0.8,1.7-2.3,2l-0.1,0.4h7.2l1.3-2.1h-0.5
					c-0.8,0.8-1.7,1.6-3.3,1.6c-1.9,0-1.8-0.1-1.1-1.9l0.6-1.6L-149.3-144.2L-149.3-144.2z M-141.2-139.5c0-0.8-0.7-1-1.8-1.4
					c-0.9-0.3-1.4-0.4-1.4-0.7c0-0.2,0.2-0.5,0.6-0.8c1.6-0.1,2.5-1.5,2.5-2.7c0-0.2,0-0.4-0.1-0.6h1.1l0.2-0.7h-1.8
					c-0.2-0.2-0.5-0.2-0.9-0.2c-1.6,0-2.7,1.4-2.7,2.7c0,0.8,0.5,1.4,1.2,1.5c-0.8,0.4-1.2,0.7-1.2,1.2c0,0.3,0.1,0.5,0.3,0.6
					c-1.8,0.5-2.5,1.2-2.5,1.9c0,0.8,1.1,1.2,2.3,1.2C-143-137.3-141.2-138.5-141.2-139.5 M-143.7-142.7c-0.4,0-0.5-0.3-0.5-0.7
					c0-1.2,0.6-2.6,1.5-2.6c0.4,0,0.5,0.3,0.5,0.7C-142.3-144.1-142.8-142.7-143.7-142.7 M-146.2-138.9c0-0.6,0.6-1,1.5-1.4
					c0.3,0.1,0.7,0.3,1.3,0.5c0.9,0.3,1.2,0.4,1.2,0.7c0,0.6-0.8,1-2.3,1C-145.6-138.1-146.2-138.3-146.2-138.9 M-134.6-146.7h-0.5
					l-0.6,0.6h-0.1c-2.4,0-4.9,3-4.9,5.3c0,0.5,0.3,0.9,0.9,0.9c0.7,0,1.4-1,2.1-2.1v0.4c-0.1,1.1,0.2,1.7,0.8,1.7
					c0.7,0,1.3-1,1.7-2h-0.3c-0.3,0.5-0.6,0.7-0.9,0.7c-0.2,0-0.4-0.4,0-1.4L-134.6-146.7z M-139.6-141.9c0-1.5,1.6-3.4,2.5-3.4
					c0.2,0,0.4,0,0.6,0.1l-0.9,2.5c-0.5,0.7-1.4,1.5-1.8,1.5C-139.4-141.2-139.6-141.4-139.6-141.9 M-133.5-141.1l3-7.9l-0.1-0.1
					l-2.1,0.2v0.2l0.4,0.3c0.4,0.3,0.2,0.5-0.1,1.4l-2.3,6.1c-0.2,0.4,0.1,0.8,0.5,0.8c0.9,0,1.9-0.9,2.4-2h-0.3
					C-132.4-141.6-133-141.2-133.5-141.1 M-127.7-147.6c0.4,0,0.7-0.3,0.7-0.7s-0.3-0.7-0.7-0.7s-0.7,0.3-0.7,0.7
					C-128.4-148-128.1-147.6-127.7-147.6 M-127.9-145.8c0.1-0.4-0.2-0.7-0.4-0.7c-0.9,0-2.1,0.9-2.5,2h0.3c0.3-0.4,0.8-0.9,1.3-1
					l-1.8,4.7c-0.2,0.4,0.2,0.7,0.4,0.7c0.9,0,1.9-0.9,2.4-2h-0.3c-0.3,0.4-0.8,0.9-1.3,1L-127.9-145.8z M-126.8-145.5h1.1l-1.7,4.7
					c-0.2,0.4,0.1,0.8,0.5,0.8c1.2,0,2.7-1,3.2-2.5h-0.3c-0.4,0.6-1.4,1.3-2.1,1.4l1.6-4.4h1.6l0.2-0.7h-1.6l0.6-1.7h-0.6l-1.1,1.7
					l-1.3,0.2L-126.8-145.5L-126.8-145.5z M-119.8-147.2l1.9-1.7v-0.2h-1.2l-1.1,1.9H-119.8z M-119.3-142.3h-0.4
					c-0.5,0.6-1.1,1.1-1.6,1.1c-0.6,0-0.8-0.3-0.8-1.1c0-0.3,0-0.6,0.1-0.9l3.3-1.1c0.6-1.5-0.1-2.2-1-2.2c-1.5,0-3.3,2.7-3.3,4.9
					c0,1,0.5,1.6,1.2,1.6C-121-140-120-140.9-119.3-142.3 M-120.4-145.6c0.4,0,0.8,0.3,0.6,1.1l-2,0.5
					C-121.5-144.9-120.9-145.6-120.4-145.6"/>
			</defs>
			<clipPath id="SVGID_4_">
				<use xlink:href="#SVGID_3_"  style="overflow:visible;"/>
			</clipPath>
		</g>
	</g>
	<g class="st1">
		<g>
			<defs>
				<path id="SVGID_5_" d="M-147.9-162.3h-4.3l-0.1,0.4c1.3,0.3,1.4,0.4,0.8,2l-1.3,3.5c-0.6,1.6-0.8,1.7-2.3,2l-0.1,0.4h6.5
					l1.4-2.5h-0.5c-0.8,0.9-1.7,2-3.2,2c-1.1,0-1.3-0.2-0.6-1.9l1.3-3.5c0.6-1.6,0.8-1.7,2.3-2L-147.9-162.3z M-143.3-161.4
					c0.4,0,0.7-0.3,0.7-0.7s-0.3-0.7-0.7-0.7s-0.7,0.3-0.7,0.7S-143.7-161.4-143.3-161.4 M-143.5-159.5c0.1-0.4-0.2-0.7-0.4-0.7
					c-0.9,0-2.1,0.9-2.5,2h0.3c0.3-0.4,0.8-0.9,1.3-1l-1.8,4.7c-0.2,0.4,0.2,0.7,0.4,0.7c0.9,0,1.9-0.9,2.4-2h-0.3
					c-0.3,0.4-0.8,0.9-1.3,1L-143.5-159.5z M-137.4-158.9c0-1-0.2-1.3-0.9-1.3c-0.8,0-1.6,0.9-2.4,2l1.7-4.5l-0.1-0.1l-2.1,0.2v0.2
					l0.4,0.3c0.4,0.3,0.2,0.6-0.1,1.4l-1.8,4.8c-0.2,0.4-0.3,0.9-0.3,1c0,0.6,0.8,1.1,1.5,1.1C-140-153.8-137.4-156.6-137.4-158.9
					 M-141-154.7c-0.3,0-0.8-0.3-0.8-0.6c0-0.1,0.1-0.4,0.3-0.9l0.5-1.4c0.6-0.7,1.4-1.4,1.9-1.4c0.3,0,0.5,0.2,0.5,0.6
					C-138.5-157.1-139.7-154.7-141-154.7 M-133.4-156h-0.4c-0.5,0.6-1.1,1.1-1.6,1.1c-0.6,0-0.8-0.3-0.8-1.1c0-0.3,0-0.6,0.1-0.9
					l3.3-1.1c0.6-1.5-0.1-2.2-1-2.2c-1.5,0-3.3,2.7-3.3,4.9c0,1,0.5,1.6,1.2,1.6C-135.1-153.8-134.2-154.6-133.4-156 M-134.5-159.3
					c0.4,0,0.8,0.3,0.6,1.1l-2,0.5C-135.6-158.6-135-159.3-134.5-159.3 M-127.6-158.7c0.2-0.8,0.1-1.4-0.5-1.4c-0.7,0-1,0.5-1.7,2.1
					v-0.9c0-0.6-0.2-1.2-0.8-1.2c-0.7,0-1.3,1-1.7,2h0.3c0.3-0.5,0.6-0.7,0.8-0.7c0.3,0,0.4,0.4,0,1.4l-1.3,2.8
					c-0.2,0.5,0,0.9,0.5,0.9c0.3,0,0.5-0.1,0.6-0.4l1.3-3.3c0.4-0.4,0.7-0.8,1.1-1.2h1.4V-158.7z M-127-159.3h1.1l-1.7,4.7
					c-0.2,0.4,0.1,0.8,0.5,0.8c1.2,0,2.7-1,3.2-2.5h-0.3c-0.4,0.6-1.4,1.3-2.1,1.4l1.6-4.4h1.6l0.2-0.7h-1.6l0.6-1.7h-0.6l-1.1,1.7
					l-1.3,0.2L-127-159.3L-127-159.3z M-120-160.9l1.9-1.7v-0.2h-1.2l-1.1,1.9H-120z M-119.5-156h-0.4c-0.5,0.6-1.1,1.1-1.6,1.1
					c-0.6,0-0.8-0.3-0.8-1.1c0-0.3,0-0.6,0.1-0.9l3.3-1.1c0.6-1.5-0.1-2.2-1-2.2c-1.5,0-3.3,2.7-3.3,4.9c0,1,0.5,1.6,1.2,1.6
					C-121.2-153.8-120.3-154.6-119.5-156 M-120.6-159.3c0.4,0,0.8,0.3,0.6,1.1l-2,0.5C-121.7-158.6-121.1-159.3-120.6-159.3"/>
			</defs>
			<clipPath id="SVGID_6_">
				<use xlink:href="#SVGID_5_"  style="overflow:visible;"/>
			</clipPath>
		</g>
	</g>
	<g class="st1">
		<g>
			<defs>
				<path id="SVGID_7_" d="M-139.4-224.7h0.1c0,0.2-0.1,0.3-0.3,0.4c0.3,0.1,0.6,0.1,0.9,0.2c0,0.1-0.1,0-0.1,0
					c0.2,0.1,0.4,0,0.6,0.2c-0.1,0.1-0.2,0-0.3,0c1.2,0.3,2.4,0.6,3.4,1.4c-0.8,0.4-1.7,0.6-2.6,0.8c-0.1,0-0.2,0-0.3,0v0.1
					c-0.1,0-0.3,0-0.4,0.1c-0.2,0.1-0.4,0.1-0.5,0c0,0,0.1,0,0.1-0.1h-0.3c0,0,0,0,0-0.1c-0.2,0-0.4,0.1-0.6,0.1
					c-0.3,0.1-0.5,0.3-0.8,0.3c-0.4,0.1-0.8,0.5-1.2,0.6c0,0,0,0,0-0.1s0.2-0.1,0.3-0.3v-0.1c0.3-0.4,0.7-0.6,1.1-1v-0.1
					c0.1-0.1,0.3-0.2,0.4-0.4c0-0.1,0.2-0.3,0.4-0.3c0,0-0.1,0-0.1-0.1c-0.1,0-0.3,0.1-0.5,0c0.1-0.1,0.1-0.1,0.2-0.1
					c0,0-0.1,0-0.1-0.1s0.1-0.2,0.2-0.2c0.1,0,0.3,0,0.5-0.1c-0.3,0-0.6,0.1-0.8-0.1C-140.1-224.1-139.8-224.5-139.4-224.7z
					 M-139.8-218.9L-139.8-218.9c-0.1,0.1-0.3,0.2-0.4,0.3c-0.2,0.1-0.3,0.2-0.5,0.2l0,0c0,0,0,0-0.1,0c-0.1,0.1-0.3,0.2-0.4,0.3
					c0,0,0,0-0.1,0.1l-0.1,0.1l0,0l0,0l-0.1,0.1c0,0,0,0-0.1,0.1h-0.1l0,0c0,0,0,0-0.1,0c0,0,0,0-0.1,0l0,0l0,0l-0.1,0.1
					c-0.1,0.1-0.1,0.1-0.2,0.2l0,0l0,0l0,0l0,0l0,0l0,0l0,0l0,0l0,0c0,0,0,0,0-0.1l0,0l0,0l0.1-0.1l0,0l0,0c0,0,0-0.1,0.1-0.1l0,0
					c0-0.1,0.1-0.1,0.1-0.2l0,0l0,0c0,0,0-0.1,0.1-0.1v-0.1l0,0l0,0l0,0v-0.1l0,0l0,0l0,0l0,0c0,0,0,0,0-0.1l0,0
					c0-0.1,0.1-0.1,0.1-0.2l0,0c-0.1,0-0.1,0.1-0.1,0.1s-0.1,0-0.1-0.1l0.1-0.1l0,0c0.1-0.1,0.1-0.1,0.2-0.2l0.1-0.1l0,0l0.1-0.1
					l0,0c0.4-0.4,1-0.3,1.4-0.6c0.2-0.1,0.4,0,0.6,0c0.1,0,0.2,0,0.3,0.1C-139.1-219.3-139.4-219.1-139.8-218.9 M-139.1-218.6
					l-0.1,0.1c0,0,0.1,0,0.1,0.1c-0.1,0.1-0.2,0.2-0.3,0.2c0,0,0,0-0.1,0l-0.1,0.1c0,0-0.3,0-0.2,0c0.1-0.1,0.2-0.2,0.3-0.3
					s0.1-0.1,0.2-0.1c0,0,0-0.1,0.1-0.1C-139.2-218.6-139-218.7-139.1-218.6 M-140.8-224.2c0,0.1-0.1,0.1-0.1,0.1
					c0,0.1-0.1,0.1-0.1,0.1h-0.1C-141.1-224.1-141-224.3-140.8-224.2C-140.8-224.3-140.8-224.3-140.8-224.2 M-143.9-221.7
					C-143.9-221.7-144-221.8-143.9-221.7c0.5-0.7,0.8-1.3,1.2-2c0.5-0.3,0.9-0.6,1.3-1.1c0.6-0.7,1.3-1.3,2.1-1.7
					c0.3-0.1,0.7-0.1,1,0c-0.1,0.1-0.3,0.1-0.5,0.2h-0.1v-0.1c-0.4,0.4-0.9,0.6-1.2,1.1c-0.2,0.4-0.4,0.9-0.9,1c-0.1,0,0-0.1,0-0.1
					C-142.2-223.6-143-222.8-143.9-221.7 M-138.2-220.9c-0.1,0-0.2,0-0.2,0c0-0.2,0.3-0.2,0.5-0.3c0.1,0,0.2-0.1,0.3-0.1
					c0.1,0.1,0.2,0.1,0.3,0.1C-137.6-220.9-137.9-221-138.2-220.9 M-132.4-218.2c0.2-0.2,0.4-0.4,0.6-0.7l0,0
					c0.4-0.5,0.8-0.9,1.3-1.3c0.1-0.1,0.3-0.2,0.4-0.3c0,0,0-0.1,0.1-0.1c-0.2,0.1-0.3,0.2-0.5,0.3c0,0-0.1,0,0-0.1s0.3-0.2,0.4-0.3
					l0,0c0,0,0,0,0-0.1c-0.5-0.1-0.9,0.3-1.2,0.6c-0.1,0-0.1,0-0.2,0c-0.6,0.2-1,0.7-1.5,0.9v-0.1c-0.2,0.1-0.4,0.2-0.7,0.3
					s-0.6,0-0.9,0c-0.5,0-0.9,0.1-1.4,0.2l0,0c-0.2,0.1-0.5,0.2-0.7,0.3l0,0c0,0,0,0-0.1,0.1s-0.1,0.2-0.3,0.2
					c-0.2,0.1-0.4,0.3-0.6,0.5c0,0,0,0-0.1,0c-0.2,0.2-0.4,0.4-0.6,0.6h-0.1l0,0l0,0c0-0.1,0.1-0.1,0.1-0.2c0-0.1,0.1-0.1,0.1-0.2
					c0.1-0.1,0.1-0.2,0.2-0.2c0,0,0,0,0-0.1c0,0,0,0-0.1,0c0.2-0.2,0.4-0.3,0.6-0.5l0,0c0,0-0.1,0,0,0c0,0,0-0.1,0.1-0.1l0,0l0,0
					c-0.1,0-0.1,0.1-0.2,0.1c-0.1,0.1-0.2,0.2-0.3,0.2c0,0,0,0-0.1,0l0,0l0,0l0,0l0,0l0,0l0,0l0,0c0,0,0,0,0-0.1l0,0
					c0,0,0-0.1,0.1-0.1l0,0c0,0,0,0,0-0.1v-0.1c0.1-0.1,0.2-0.2,0.3-0.2l0,0c0.1-0.1,0.3-0.2,0.4-0.2c0,0,0,0,0.1-0.1
					c-0.2,0.1-0.4,0.2-0.6,0.3h-0.1c0,0,0,0-0.1,0l0,0c0-0.1,0.1-0.1,0.2-0.2h0.1c1.2-0.9,2.9-0.7,4.3-1.2c0.1-0.1,0.2-0.1,0.3-0.2
					c0.2-0.1,0.3-0.3,0.6-0.4c0.3-0.2,0.5-0.5,0.6-0.9v-0.1c-0.5,0.5-1.1,0.9-1.7,1.2c-0.8,0.4-1.7,0.3-2.5,0.5
					c0-0.1,0.1-0.1,0.2-0.1c0-0.1,0.1-0.1,0.1-0.2h0.1c0,0,0-0.1,0.1-0.1s0.2,0,0.1,0c-0.1-0.1-0.3,0.1-0.5,0c0.1-0.1,0-0.2,0.1-0.2
					h0.1c0-0.1,0.1-0.1,0.1-0.1c0.6-0.3,1.1-0.6,1.6-0.9c-0.1,0-0.2,0.1-0.3,0c0.1,0,0-0.1,0.1-0.1c0.4-0.1,0.8-0.3,1.2-0.5
					c-0.1,0-0.3,0.1-0.4,0c0.1,0,0.1-0.1,0.2-0.1v-0.1c0,0,0,0,0.1,0h-0.1c0-0.1,0.1,0,0.2-0.1h-0.1c0.1-0.1,0.3-0.2,0.5-0.2
					c0-0.1-0.1,0-0.1-0.1c0,0,0,0,0.1,0h-0.1c-0.1,0,0-0.1,0-0.1c0.2-0.3,0.2-0.6,0.3-0.9h-0.1c-0.4,0.4-1,0.6-1.5,0.7h-0.2
					c-0.2,0.1-0.5,0.1-0.6,0s-0.2-0.2-0.4-0.3c-0.3-0.2-0.6-0.3-0.9-0.5c-0.9-0.3-1.9-0.5-2.9-0.4c0.4-0.2,0.9-0.2,1.3-0.4
					c0.6-0.2,1.2-0.4,1.9-0.4c-0.1,0-0.3,0-0.4,0c-0.5,0-1.1,0.1-1.6,0.2c-0.4,0.1-0.7,0.2-1.1,0.3c-0.2,0.1-0.3,0.3-0.6,0.3v-0.1
					c0.4-0.5,0.8-0.9,1.4-0.9c0.7-0.1,1.3,0,2,0.1c0.5,0,0.9,0.1,1.4,0.3c0.2,0,0.2,0.3,0.4,0.3c0.2,0.1,0.5,0,0.7,0.1
					c0-0.1,0-0.1,0-0.2c0.1-0.1,0.3,0,0.5,0c0.3-0.2-0.3-0.5-0.4-0.8v-0.1c0.3,0.3,0.5,0.6,0.9,0.8c0.2,0.1,0.6,0.2,0.6,0
					c-0.2-0.4-0.6-0.8-0.9-1.1v-0.1c-0.1,0-0.1,0-0.1-0.1v-0.1c-0.1-0.1-0.1-0.2-0.2-0.3c-0.1-0.2,0-0.5-0.1-0.7s-0.1-0.4-0.1-0.6
					c-0.1-0.6-0.3-1.2-0.3-1.8c-0.1-0.7,0.4-1.3,0.8-1.9c0.3-0.5,0.6-0.9,1.1-1.2c0.1-0.5,0.4-0.8,0.7-1.2s0.8-0.6,1.2-0.8
					c0.5-0.2,1-0.4,1-0.4h-26v20h18.5c0.7-0.5,1.4-0.8,2.4-1.3C-133.8-217.4-132.8-217.9-132.4-218.2"/>
			</defs>
			<clipPath id="SVGID_8_">
				<use xlink:href="#SVGID_7_"  style="overflow:visible;"/>
			</clipPath>
		</g>
	</g>
	<g class="st1">
		<g>
			<defs>
				<path id="SVGID_9_" d="M-100.3-235.8h-21.4c0,0,0,0,0.2,0.1s0.4,0.2,0.5,0.3c0.3,0.1,0.5,0.3,0.7,0.6c0.1,0.1,0.2,0.3,0.1,0.5
					s-0.1,0.5-0.3,0.6c-0.2,0.1-0.5,0.1-0.8,0.1c-0.1,0-0.3,0-0.5-0.1c0.6,0.2,1.1,0.5,1.5,1c0,0.1,0.2,0.1,0.3,0.1v0.1
					c-0.1,0.1-0.1,0.1-0.1,0.2h0.1c0.2-0.1,0.1-0.5,0.4-0.3c0.2,0.1,0.3,0.4,0.1,0.6c-0.1,0.1-0.3,0.3-0.5,0.4c0,0.1,0,0.2,0,0.3
					c0.1,0.1,0.1,0.3,0.2,0.5c0.1,0.3,0.1,0.6,0.3,0.8c0.1,0.6,0.3,1.1,0.3,1.7c0,0.3-0.1,0.6,0,0.9c0.1,0.3,0.3,0.5,0.4,0.8
					c0.1,0.2,0.3,0.4,0.4,0.6c0.2,0.4,0.6,0.8,0.5,1.2c-0.1,0.3-0.5,0.2-0.8,0.4c-0.2,0.2,0,0.5,0.1,0.7c0.2,0.3-0.2,0.6-0.5,0.7
					c0.1,0.1,0.2,0.1,0.3,0.1c0,0.2,0.2,0.3,0.1,0.5s-0.6,0.3-0.4,0.7c0.1,0.3,0.1,0.6,0,0.8c-0.1,0.3-0.4,0.5-0.7,0.6
					c-0.2,0.1-0.5,0.1-0.7,0c-0.1,0-0.1-0.1-0.2-0.1c-0.6-0.1-1.3-0.3-1.9-0.3c-0.2,0-0.4,0.1-0.5,0.1c-0.2,0.1-0.3,0.3-0.5,0.4l0,0
					l-0.1,0.1c0,0,0,0,0,0.1l0,0c-0.1,0.1-0.2,0.3-0.3,0.4l0,0c0,0,0,0,0,0.1c-0.1,0.2-0.2,0.5-0.3,0.7c-0.3,0.9-0.1,1.6,0,1.8
					c0.1,0.1,1.2,0.4,2.1,0.8c0.4,0.2,0.7,0.3,0.9,0.4h21L-100.3-235.8L-100.3-235.8z"/>
			</defs>
			<clipPath id="SVGID_10_">
				<use xlink:href="#SVGID_9_"  style="overflow:visible;"/>
			</clipPath>
		</g>
	</g>
	<g class="st1">
		<g>
			<defs>
				<path id="SVGID_11_" d="M-120.4-228.6c0.1,0,0.4,0,0.4,0.1c-0.1,0.3-0.5,0.4-0.8,0.7h-0.1c-0.1,0.1-0.1,0.3-0.2,0.3
					s-0.2,0-0.3,0c0.1,0.1,0.3,0.3,0.6,0.2l0.1,0.1c0,0,0,0,0.1,0h0.1v0.1c-0.1,0.1-0.3,0.1-0.5,0.1c0.3,0.1,0.6,0.1,0.9,0
					c0.2-0.1,0-0.5,0.1-0.6c-0.1,0,0-0.1-0.1-0.1c0.1-0.1,0.1-0.2,0.2-0.2s0.2,0,0.2-0.1s-0.1-0.1-0.1-0.2c0.2-0.1,0.4-0.4,0.3-0.6
					c0-0.1-0.3-0.1-0.5-0.2c-0.2-0.1-0.4,0-0.6,0s-0.4,0.1-0.6,0.1c-0.3,0.1-0.5,0.2-0.7,0.4c0.3-0.1,0.5-0.1,0.8-0.2
					C-120.8-228.6-120.6-228.6-120.4-228.6"/>
			</defs>
			<clipPath id="SVGID_12_">
				<use xlink:href="#SVGID_11_"  style="overflow:visible;"/>
			</clipPath>
		</g>
	</g>
</g>
<g>
	<path class="st2" d="M5.4,0h3.8l5.4,14.3h-3.1l-1.4-3.7H4.4l-1.4,3.7H0L5.4,0z M9.2,8.1l-2-5.4l-2,5.4H9.2z"/>
	<path class="st2" d="M26.6,10.7V8.3H23V5.7h6.5v6.1c-1.3,1.8-3.6,2.9-6.2,2.9c-4.6,0-7.8-3.5-7.8-7.6c0-4.1,3.1-7.6,7.6-7.6
		c2.6,0,4.7,1.2,6,2.9l-2.3,1.8c-0.8-1.2-2.1-2-3.7-2c-2.7,0-4.6,2.1-4.6,4.8c0,2.7,2,4.8,4.8,4.8C24.6,12,25.8,11.5,26.6,10.7z"/>
	<path class="st2" d="M32.9,0h8.3v2.5h-5.4v3.3h4.6v2.5h-4.6v3.6h5.4v2.5h-8.3V0z"/>
	<path class="st2" d="M44.9,0h3.7L55,10.2V0h2.9v14.3h-3.7L47.8,4v10.3h-2.9V0z"/>
	<path class="st2" d="M72.2,10l2.3,1.8c-1.3,1.8-3.4,2.9-6,2.9c-4.5,0-7.6-3.5-7.6-7.6c0-4.1,3.1-7.6,7.6-7.6c2.6,0,4.7,1.2,6,2.9
		l-2.3,1.8c-0.8-1.2-2.1-2-3.7-2c-2.7,0-4.6,2.1-4.6,4.8c0,2.7,1.9,4.8,4.6,4.8C70.1,12,71.4,11.2,72.2,10z"/>
	<path class="st2" d="M77.2,0h8.3v2.5h-5.4v3.3h4.6v2.5h-4.6v3.6h5.4v2.5h-8.3V0z"/>
	<path class="st2" d="M1.8,21.9h3.7l6.4,10.2V21.9h2.9v14.3h-3.7L4.7,25.9v10.3H1.8V21.9z"/>
	<path class="st2" d="M22.6,21.9h3.8l5.4,14.3h-3.1l-1.4-3.7h-5.7l-1.4,3.7h-3.1L22.6,21.9z M26.5,30l-2-5.4l-2,5.4H26.5z"/>
	<path class="st2" d="M31.3,21.9h11.7v2.6h-4.4v11.7h-2.9V24.5h-4.4V21.9z"/>
	<path class="st2" d="M45.8,21.9h2.9v14.3h-2.9V21.9z"/>
	<path class="st2" d="M66.9,29c0,4.1-3.1,7.6-7.6,7.6c-4.5,0-7.6-3.5-7.6-7.6c0-4.1,3.1-7.6,7.6-7.6C63.8,21.5,66.9,24.9,66.9,29z
		 M63.9,29c0-2.7-1.9-4.8-4.6-4.8c-2.7,0-4.6,2.1-4.6,4.8c0,2.7,1.9,4.8,4.6,4.8C62,33.9,63.9,31.8,63.9,29z"/>
	<path class="st2" d="M69.9,21.9h3.7L80,32.1V21.9h2.9v14.3h-3.7l-6.4-10.3v10.3h-2.9V21.9z"/>
	<path class="st2" d="M90.8,21.9h3.8l5.4,14.3h-3.1l-1.4-3.7h-5.7l-1.4,3.7h-3.1L90.8,21.9z M94.6,30l-2-5.4l-2,5.4H94.6z"/>
	<path class="st2" d="M102.4,21.9h2.9v11.7h5.4v2.6h-8.3V21.9z"/>
	<path class="st2" d="M113.5,21.9h8.3v2.5h-5.4v3.3h4.6v2.5h-4.6v3.6h5.4v2.5h-8.3V21.9z"/>
	<path class="st2" d="M2,43.8h5.4c4.4,0,7.5,3.3,7.5,7.2s-3,7.2-7.5,7.2H2V43.8z M3.3,45v11.9h4.2c3.5,0,6.1-2.7,6.1-6
		c0-3.3-2.5-6-6.1-6H3.3z"/>
	<path class="st2" d="M18.4,43.8h7.3v1.2h-6v5.3h5.2v1.1h-5.2v5.5h6v1.2h-7.3V43.8z"/>
	<path class="st2" d="M35.2,43.8h1.3v13.1h6v1.2h-7.3V43.8z"/>
	<path class="st2" d="M50,43.8h1.8l5.9,14.3h-1.4l-1.8-4.5h-7.1l-1.8,4.5h-1.4L50,43.8z M54,52.4l-3.1-7.6l-3.1,7.6H54z"/>
	<path class="st2" d="M76.2,53.8l2.3,1.8c-1.3,1.8-3.4,2.9-6,2.9c-4.5,0-7.6-3.5-7.6-7.6c0-4.1,3.1-7.6,7.6-7.6c2.6,0,4.7,1.2,6,2.9
		L76.2,48c-0.8-1.2-2.1-2-3.7-2c-2.7,0-4.6,2.1-4.6,4.8c0,2.7,1.9,4.8,4.6,4.8C74.1,55.8,75.3,55,76.2,53.8z"/>
	<path class="st2" d="M95,50.9c0,4.1-3.1,7.6-7.6,7.6c-4.5,0-7.6-3.5-7.6-7.6c0-4.1,3.1-7.6,7.6-7.6C91.9,43.4,95,46.8,95,50.9z
		 M92,50.9c0-2.7-1.9-4.8-4.6-4.8c-2.7,0-4.6,2.1-4.6,4.8c0,2.7,1.9,4.8,4.6,4.8C90.1,55.8,92,53.7,92,50.9z"/>
	<path class="st2" d="M98,43.8h2.9v5.7h7.2v-5.7h2.9v14.3h-2.9v-6h-7.2v6H98V43.8z"/>
	<path class="st2" d="M115.2,43.8h8.3v2.5h-5.4v3.3h4.6V52h-4.6v3.6h5.4v2.5h-8.3V43.8z M118.1,42.5l2.3-2.8h3l-2.7,2.8H118.1z"/>
	<path class="st2" d="M128,54.2c0.9,1.1,2,1.8,3.2,1.8c1.1,0,1.8-0.6,1.8-1.7c0-2.6-6.5-2-6.5-6.7c0-2.3,1.9-4.2,4.6-4.2
		c2.1,0,3.8,1,5,2.4l-2.1,1.9c-0.8-1.1-1.8-1.8-2.9-1.8c-1,0-1.7,0.7-1.7,1.5c0,2.6,6.5,2,6.5,6.8c0,2.7-2.1,4.3-4.7,4.3
		c-2.4,0-4-0.9-5.3-2.4L128,54.2z"/>
	<path class="st2" d="M139.2,43.8h2.9v14.3h-2.9V43.8z"/>
	<path class="st2" d="M160.3,50.9c0,4.1-3.1,7.6-7.6,7.6c-4.5,0-7.6-3.5-7.6-7.6c0-4.1,3.1-7.6,7.6-7.6
		C157.2,43.4,160.3,46.8,160.3,50.9z M157.3,50.9c0-2.7-1.9-4.8-4.6-4.8c-2.7,0-4.6,2.1-4.6,4.8c0,2.7,1.9,4.8,4.6,4.8
		C155.4,55.8,157.3,53.7,157.3,50.9z"/>
	<path class="st2" d="M163.2,43.8h3.7l6.4,10.2V43.8h2.9v14.3h-3.7l-6.4-10.3v10.3h-2.9V43.8z"/>
	<path class="st2" d="M2,65.7h5.4c4.4,0,7.5,3.3,7.5,7.2c0,3.9-3,7.2-7.5,7.2H2V65.7z M3.3,66.9v11.9h4.2c3.5,0,6.1-2.7,6.1-6
		c0-3.3-2.5-6-6.1-6H3.3z"/>
	<path class="st2" d="M18.4,65.7h7.3v1.2h-6v5.3h5.2v1.1h-5.2v5.5h6V80h-7.3V65.7z"/>
	<path class="st2" d="M29.7,77.1c1.1,1.4,2.3,2,3.7,2c1.8,0,2.9-1.2,2.9-2.7c0-3.4-6.9-3.1-6.9-7.6c0-1.9,1.6-3.6,3.9-3.6
		c1.9,0,3.3,0.9,4.3,2.3l-1,0.8c-0.8-1.3-1.9-1.9-3.3-1.9c-1.6,0-2.6,1.1-2.6,2.5c0,3.5,6.9,3.2,6.9,7.6c0,2.3-1.8,3.9-4.2,3.9
		c-1.9,0-3.5-0.8-4.7-2.4L29.7,77.1z"/>
	<path class="st2" d="M45.5,65.7h11.7v2.6h-4.4V80h-2.9V68.3h-4.4V65.7z"/>
	<path class="st2" d="M60,65.7h8.3v2.5h-5.4v3.3h4.6v2.5h-4.6v3.6h5.4V80H60V65.7z"/>
	<path class="st2" d="M71.9,65.7h4.4c3.2,0,5.1,1.6,5.1,4.3c0,1.7-0.8,3-2.3,3.7l4.5,6.3h-3.5l-3.8-5.8h-1.5V80h-2.9V65.7z
		 M74.8,68.1v3.6h1.6c1.2,0,1.9-0.7,1.9-1.8c0-1.1-0.7-1.8-1.9-1.8H74.8z"/>
	<path class="st2" d="M85.6,65.7H90c3.2,0,5.1,1.6,5.1,4.3c0,1.7-0.8,3-2.3,3.7l4.5,6.3h-3.5L90,74.2h-1.5V80h-2.9V65.7z M88.5,68.1
		v3.6h1.6c1.2,0,1.9-0.7,1.9-1.8c0-1.1-0.7-1.8-1.9-1.8H88.5z"/>
	<path class="st2" d="M99.3,65.7h2.9V80h-2.9V65.7z"/>
	<path class="st2" d="M104.9,65.7h11.7v2.6h-4.4V80h-2.9V68.3h-4.4V65.7z"/>
	<path class="st2" d="M132.7,72.8c0,4.1-3.1,7.6-7.6,7.6c-4.5,0-7.6-3.5-7.6-7.6c0-4.1,3.1-7.6,7.6-7.6
		C129.6,65.3,132.7,68.7,132.7,72.8z M129.7,72.8c0-2.7-1.9-4.8-4.6-4.8c-2.7,0-4.6,2.1-4.6,4.8c0,2.7,1.9,4.8,4.6,4.8
		C127.8,77.7,129.7,75.6,129.7,72.8z"/>
	<path class="st2" d="M135.7,65.7h2.9V80h-2.9V65.7z"/>
	<path class="st2" d="M142.8,65.7h4.4c3.2,0,5.1,1.6,5.1,4.3c0,1.7-0.8,3-2.3,3.7l4.5,6.3H151l-3.8-5.8h-1.5V80h-2.9V65.7z
		 M145.7,68.1v3.6h1.6c1.2,0,1.9-0.7,1.9-1.8c0-1.1-0.7-1.8-1.9-1.8H145.7z"/>
	<path class="st2" d="M156.5,65.7h8.3v2.5h-5.4v3.3h4.6v2.5h-4.6v3.6h5.4V80h-8.3V65.7z"/>
	<path class="st2" d="M169.2,76.1c0.9,1.1,2,1.8,3.2,1.8c1.1,0,1.8-0.6,1.8-1.7c0-2.6-6.5-2-6.5-6.7c0-2.3,1.9-4.2,4.6-4.2
		c2.1,0,3.8,1,5,2.4l-2.1,1.9c-0.8-1.1-1.8-1.8-2.9-1.8c-1,0-1.7,0.7-1.7,1.5c0,2.6,6.5,2,6.5,6.8c0,2.7-2.1,4.3-4.7,4.3
		c-2.4,0-4-0.9-5.3-2.4L169.2,76.1z"/>
</g>
</svg>
