<svg xmlns="http://www.w3.org/2000/svg" xml:space="preserve" viewBox="0 0 180.83 180.83"><style>.st0{fill:#2fac66}.st3{fill:#253574}.st4{fill:#ffe910}</style><g id="Calque_2"><path d="M90.41 180.83C40.56 180.83 0 140.27 0 90.41 0 40.56 40.56 0 90.41 0s90.41 40.56 90.41 90.41c.01 49.86-40.55 90.42-90.41 90.42m0-175.86C43.3 4.97 4.97 43.3 4.97 90.41s38.33 85.44 85.44 85.44 85.44-38.33 85.44-85.44c.01-47.11-38.32-85.44-85.44-85.44" class="st0"/><path d="M90.41 136.44c-25.38 0-46.03-20.65-46.03-46.03s20.65-46.03 46.03-46.03 46.03 20.65 46.03 46.03-20.65 46.03-46.03 46.03m0-90.19c-24.35 0-44.16 19.81-44.16 44.16s19.81 44.16 44.16 44.16 44.16-19.81 44.16-44.16c.01-24.35-19.81-44.16-44.16-44.16" class="st0"/><path d="M119.93 89.06h30.27v16.4h-30.27z" style="fill:#e20e18" transform="rotate(-60 135.067 97.269)"/><path d="M105.73 80.86H136v16.4h-30.27z" style="fill:#fff" transform="rotate(-60 120.864 89.069)"/><path d="m91.996 89.873 15.135-26.214 14.202 8.2-15.135 26.214z" class="st3"/><path d="m107.74 65.95 39.7 22.92-13.46 23.31-39.7-22.92zm-.62-2.29L91.99 89.87l42.61 24.6 15.13-26.21z" class="st3"/><path d="m77.594 113.896 30.08-52.114 1.61.93-30.079 52.113zM31.09 88.147l42.608-24.6L88.833 89.76l-42.607 24.6z" class="st3"/><path d="m64.5 99.22.53-1.16 1.22.15-.92-.82.55-1.11-1.07.62-.91-.8.23 1.19-1.08.62 1.21.1zM54.93 82.11l.53-1.13 1.22.12-.91-.82.54-1.1-1.06.61-.92-.78.24 1.18-1.07.61 1.19.09zM50.82 95.7l.53-1.13 1.24.11-.91-.82.57-1.09-1.08.63-.94-.79.23 1.19-1.08.63 1.19.06zM68.55 85.43l.53-1.13 1.23.12-.9-.84.55-1.06-1.07.61-.93-.79.23 1.2-1.07.62 1.18.06zM60.11 80.68l.54-1.14 1.23.11-.91-.81.55-1.1-1.07.62-.93-.81.23 1.21-1.08.63 1.2.08zM65.07 82.01l.54-1.14 1.23.11-.92-.83.55-1.09-1.07.61-.92-.79.21 1.21-1.07.61 1.21.08zM69.56 90.34l.53-1.12 1.24.11-.91-.82.56-1.11-1.08.62-.93-.79.22 1.2-1.07.62 1.2.1zM68.16 95.38l.54-1.15 1.24.13-.92-.83.56-1.1-1.07.62-.94-.79.23 1.2-1.07.62 1.2.08zM59.57 100.35l.53-1.15 1.25.12-.92-.83.56-1.1-1.08.62-.93-.79.22 1.2-1.08.62 1.2.09zM54.72 98.94l.54-1.12 1.22.1-.9-.81.56-1.11-1.08.62-.92-.78.21 1.19-1.07.62 1.21.09zM49.52 90.98l.53-1.13 1.24.11-.92-.83.57-1.1-1.09.62-.93-.78.22 1.2-1.07.61 1.2.09zM50.76 86.1l.53-1.13 1.23.12-.91-.82.55-1.09-1.06.61-.95-.8.24 1.21-1.08.62 1.2.09z" class="st4"/><path d="m71.558 62.706 1.61-.93 30.086 52.107-1.611.93z" class="st3"/><path d="m22.3 57.62 6.46-11.3 3.27 1.87-4.21 7.37 4.6 2.63L36 51.93l3.27 1.87-3.58 6.26 8.25 4.72-2.25 3.93zM36.44 37.23l5.24-4.37c3.77-3.14 7.71-3.15 10.37.04 1.73 2.08 2.02 4.46.93 6.74l11.7 3.12-4.09 3.41-10.36-3.12-1.79 1.49 5.78 6.94-3.48 2.9zm5.89 0 3.69 4.44 1.96-1.63c1.47-1.23 1.61-2.8.45-4.19-1.08-1.3-2.67-1.47-4.15-.24zM68.56 18.18l5.74-1.5 13.81 19.48-4.66 1.21-3.53-5.08-8.65 2.25-.6 6.16-4.66 1.21zm9.03 10.73-5.08-7.35-.85 8.89zM95.8 14.52l5.69 1.18 6.49 17.84 3.29-15.81 4.44.92-4.55 21.87-5.69-1.18-6.49-17.84-3.29 15.81-4.44-.92zM133.09 47.97l1.11 4.37c-3.32.92-7.03.27-10.21-2.24-5.54-4.36-5.97-11.6-2.02-16.61s11.08-6.29 16.62-1.93c3.18 2.5 4.66 5.98 4.59 9.38l-4.52-.03c.12-2.22-.69-4.44-2.69-6.02-3.31-2.6-7.69-1.88-10.34 1.48-2.64 3.36-2.32 7.79.99 10.4 2 1.57 4.34 1.84 6.47 1.2M153.16 48.09l6.3 11.39-3.29 1.82-4.11-7.42-4.63 2.56 3.49 6.31-3.29 1.82-3.49-6.31-5.02 2.78 4.11 7.43-3.29 1.82-6.3-11.39zM38.7 107.33l3.04 6.11c2.19 4.4 1.28 8.23-2.43 10.08-2.43 1.21-4.81.93-6.77-.66l-5.74 10.66-2.37-4.77 5.43-9.36-1.04-2.08-8.08 4.02-2.02-4.06zm-1.35 5.74-5.17 2.57 1.14 2.28c.85 1.71 2.35 2.21 3.98 1.41 1.51-.75 2.04-2.26 1.19-3.98zM48.69 124.99l9.36 9.04-2.61 2.71-6.1-5.89-3.68 3.81 5.19 5.01-2.61 2.71-5.19-5-3.99 4.13 6.1 5.89-2.61 2.71-9.36-9.04zM61.97 136.45l4.07 1.98-7.97 16.38 7.63 3.71-1.8 3.7-11.7-5.69zM83.09 143.84l5.91.49 6.58 22.95-4.8-.4-1.65-5.96-8.9-.74-2.61 5.61-4.8-.4zm4.96 13.12-2.36-8.61-3.74 8.11zM99.31 144.5l5.45-2 14.93 11.71-5.56-15.15 4.25-1.56 7.69 20.96-5.45 2-14.93-11.72 5.56 15.15-4.25 1.56zM144.62 134.55l4.47-.58c.51 3.41-.58 7.01-3.45 9.87-4.99 4.97-12.23 4.53-16.73.01s-4.91-11.76.08-16.73c2.87-2.86 6.5-3.91 9.86-3.43l-.57 4.49c-2.19-.39-4.49.15-6.3 1.95-2.98 2.97-2.79 7.41.23 10.44s7.46 3.24 10.44.27c1.8-1.81 2.35-4.11 1.97-6.29M137.01 118.06l5.35-11.87 3.43 1.54-3.49 7.74 4.83 2.18 2.96-6.57 3.43 1.54-2.96 6.57 5.23 2.36 3.49-7.74 3.43 1.55-5.35 11.86z" class="st0"/></g></svg>