<svg xmlns="http://www.w3.org/2000/svg" xml:space="preserve" id="Logo_x5F_BDT" x="0" y="0" version="1.1" viewBox="0 0 600.9 122.4"><style>.st0{fill:#f01e1e}.st1{fill:#7c766e}.st2{fill:#fff}</style><path d="M159.2 76.5h-10.5V108H141V76.5h-10.4v-7.3h28.6zm28.5 24.1v7.3H164V69.2h23.7v7.3h-16.1v8.3h14.7V92h-14.7v8.7h16.1zm19.7-6.1h-5.8V108h-7.7V69.2h15.5c7.2 0 12.9 5.8 12.9 12.9 0 4.9-3 9.3-7.5 11.3l8.6 14.6h-8.3zm-5.8-6.7h7.9c2.9 0 5.3-2.6 5.3-5.8s-2.4-5.7-5.3-5.7h-7.9zm40.4 6.7h-5.8V108h-7.7V69.2H244c7.2 0 12.9 5.8 12.9 12.9 0 4.9-3 9.3-7.5 11.3L258 108h-8.3zm-5.8-6.7h7.9c2.9 0 5.3-2.6 5.3-5.8s-2.4-5.7-5.3-5.7h-7.9zm34.6-18.6V108h-7.7V69.2zm33.4 7.3h-10.5V108H286V76.5h-10.4v-7.3h28.6zm.8 12.1c0-11.4 8.9-20.2 20.1-20.2s20.2 8.8 20.2 20.2c0 11.3-9 20.2-20.2 20.2-11.1-.1-20.1-8.9-20.1-20.2m32.7 0c0-7.5-5.5-12.8-12.5-12.8s-12.5 5.3-12.5 12.8c0 7.4 5.5 12.7 12.5 12.7s12.5-5.3 12.5-12.7m21.2-19.4V108h-7.7V69.2zm21.3 25.3h-5.8V108h-7.7V69.2h15.5c7.2 0 12.9 5.8 12.9 12.9 0 4.9-3 9.3-7.5 11.3l8.6 14.6H388zm-5.9-6.7h7.9c2.9 0 5.3-2.6 5.3-5.8s-2.4-5.7-5.3-5.7h-7.9zm50.7 12.8v7.3h-23.7V69.2H425v7.3h-16.1v8.3h14.7V92h-14.7v8.7H425zm4.2-1.5 6.5-3.8c1.4 3.6 4.1 5.9 8.9 5.9 4.6 0 6.2-1.9 6.2-4.1 0-2.9-2.6-4-8.4-5.7-5.9-1.7-11.7-4.2-11.7-11.6 0-7.3 6.1-11.5 12.8-11.5 6.4 0 11.3 3.3 13.9 8.7l-6.4 3.7c-1.4-2.9-3.5-5-7.4-5-3.2 0-5.1 1.7-5.1 3.9 0 2.4 1.5 3.7 7.4 5.4 6.2 1.9 12.7 4 12.7 11.9 0 7.3-5.8 11.7-14.1 11.7-8 .1-13.2-3.7-15.3-9.5" class="st0"/><path d="M395.6 13.7v38.2h-2.7v-6.3c-2.2 4.2-6.4 6.9-11.7 6.9-7.8 0-14.1-6.2-14.1-14.3s6.3-14.3 14.1-14.3c5.3 0 9.5 2.7 11.7 6.9V13.7zm-2.7 24.6c0-6.5-5.1-11.6-11.6-11.6s-11.6 5.1-11.6 11.6 5.1 11.6 11.6 11.6 11.6-5.1 11.6-11.6m38.8.1c0 .4-.1.9-.1 1.3h-24.7c.7 6.2 5.4 10.2 11.6 10.2 4.5 0 7.9-2.1 9.4-5l2.4 1.4c-2.2 3.7-6.5 6.2-11.9 6.2-8.4 0-14.4-6-14.4-14.3 0-8 5.8-14.3 14.1-14.3 8.4.1 13.6 7 13.6 14.5M406.9 37h22c-.6-6.7-5.3-10.4-10.6-10.4-6.3.1-10.8 4.4-11.4 10.4m51.2 7.8c0 4.5-3.9 7.8-9.8 7.8-5.5 0-9.1-2.6-10.4-6.1l2.3-1.4c1 2.9 3.9 4.8 8 4.8 3.8 0 7-1.7 7-5.1 0-7.4-16.5-3.2-16.5-13 0-4.3 3.7-7.8 9.3-7.8 4.4 0 7.8 2.1 9.3 5.5l-2.3 1.3c-1.1-2.8-4-4.2-7-4.2-3.5 0-6.6 1.9-6.6 5.1.2 7.4 16.7 3.1 16.7 13.1m-296.9-3.3c0 5.8-4.6 10.4-10.4 10.4h-16.5V13.8h15.2c5.6 0 10 4.5 10 10 0 3.7-2 6.8-4.9 8.3 3.9 1.5 6.6 5.1 6.6 9.4m-23.9-25v14.6h12.3c3.9 0 7.1-3.3 7.1-7.3s-3.2-7.3-7.1-7.3zm21 25c0-4.2-3.4-7.7-7.5-7.7h-13.6v15.4h13.6c4.2 0 7.5-3.4 7.5-7.7m33.1.7h-19.1l-3.7 9.7h-3.1l14.8-38.1h3.1l14.8 38.1h-3.1zm-1.1-2.7-8.5-22.2-8.5 22.2zm42.4-25.7v38.1h-2.6l-22.5-32.8v32.8h-2.9V13.8h2.5l22.6 32.8V13.8zm55.6 25.4V13.8h2.9v25.4c0 6.2 3.9 10.6 11.1 10.6s11.1-4.4 11.1-10.6V13.8h2.9v25.4c0 8.1-5.6 13.3-14 13.3s-14-5.2-14-13.3m59.6 10v2.7h-21.7V13.8h21.7v2.7h-18.8v14.8h17.4V34h-17.4v15.1h18.8zm-67.5-16.3c0-10.9-8.8-19.7-19.7-19.7S241 22 241 32.9s8.8 19.7 19.7 19.7c3.4 0 6.5-.8 9.3-2.3l-2.1-2.1c-2.2 1-4.6 1.6-7.2 1.6-9.3 0-16.8-7.5-16.8-16.9S251.4 16 260.8 16c9.3 0 16.8 7.5 16.8 16.9 0 4.8-2 9.1-5.1 12.2l-8.8-8.6-2 1.8 17.7 17.6 2-1.8-7-7.1c3.7-3.6 6-8.6 6-14.1" class="st1"/><path d="M12.6 100.7 0 93.7v-65l32-17.8 13 7.2-32.4 18zM90.4 79l12.6-7V28.7L51.5 0l-13 7.2 51.9 28.9zm-38.9 28.9L18.9 89.8v14.4l32.5 18.1L103 93.7V79.2z" class="st0"/><path d="M484.4 14.8h1.5V108h-1.5z" class="st1"/><path d="M507.8 14.6H601v93.2h-93.2z" class="st0"/><path d="M519.6 65c-2.1 0-3 1.7-3 3.8 0 1.9.8 3.8 3 3.8 1.5 0 2.3-1 2.5-2.5h2.4c-.3 3-2.3 4.6-4.9 4.6-3.4 0-5.5-2.6-5.5-5.8 0-3.4 2.1-5.9 5.5-5.9 2.6 0 4.5 1.6 4.8 4H522c-.1-1.1-1.2-2-2.4-2M532.9 72.6v-4.2c0-2.1-2.3-2.3-3.5-2.3-1.7 0-3.7.6-3.8 2.7h2.2c.1-.9.6-1.2 1.5-1.2.8 0 1.4.2 1.4 1.1 0 .5-.4.8-1.6.9-.3 0-.6.1-1 .1-1.3.2-2.7.6-2.7 2.5 0 1.6 1.1 2.4 2.7 2.4.9 0 2-.2 2.7-1 0 .2.1.6.2.8h2.2c-.3-.3-.3-1.2-.3-1.8m-2.2-1.3c0 1.4-.8 1.9-1.8 1.9-.7 0-1.4-.2-1.4-1 0-.6.3-1 1.3-1.2.2 0 .4-.1.5-.1.4 0 1.1-.2 1.3-.4.1 0 .1.8.1.8M534.4 65.1v-1.8h2.2v1.8zm2.2 1.2v8.1h-2.2v-8.1zM541.5 73.2c.6 0 1.4-.2 1.4-1 0-.2-.1-.4-.2-.5-.8-.8-3.3-.6-4.4-1.7-.3-.3-.5-.7-.5-1.3 0-1.7 1.2-2.6 3.5-2.6 1.5 0 3.4.5 3.5 2.6h-2.1c0-.9-.7-1.1-1.5-1.1-.6 0-1.2.1-1.2.8 0 .5.6.8 1.6 1 .3.1.6.1.9.2 1.3.3 2.6.8 2.6 2.3 0 1.7-1.2 2.8-3.7 2.8-2 0-3.7-.8-3.8-2.8h2.1c.1.8.9 1.3 1.8 1.3M535.7 88.4c.6 0 1.4-.2 1.4-1 0-.2-.1-.4-.2-.5-.8-.8-3.3-.6-4.4-1.7-.3-.3-.5-.7-.5-1.3 0-1.7 1.2-2.6 3.5-2.6 1.5 0 3.4.5 3.5 2.6h-2c0-.9-.7-1.1-1.5-1.1-.6 0-1.2.1-1.2.8 0 .5.6.8 1.6 1 .3.1.6.1.9.2 1.3.3 2.6.8 2.6 2.3 0 1.7-1.2 2.8-3.7 2.8-2 0-3.7-.8-3.8-2.8h2.1c0 .9.7 1.3 1.7 1.3M590.3 88.4c.6 0 1.4-.2 1.4-1 0-.2-.1-.4-.2-.5-.8-.8-3.3-.6-4.4-1.7-.3-.3-.5-.7-.5-1.3 0-1.7 1.2-2.6 3.5-2.6 1.5 0 3.4.5 3.5 2.6h-2.1c0-.9-.7-1.1-1.5-1.1-.6 0-1.2.1-1.2.8 0 .5.6.8 1.6 1 .3.1.6.1.9.2 1.3.3 2.6.8 2.6 2.3 0 1.7-1.2 2.8-3.7 2.8-2 0-3.7-.8-3.8-2.8h2.1c.1.9.8 1.3 1.8 1.3M549.8 73.2c.6 0 1.4-.2 1.4-1 0-.2-.1-.4-.2-.5-.8-.8-3.3-.6-4.4-1.7-.3-.3-.5-.7-.5-1.3 0-1.7 1.2-2.6 3.5-2.6 1.5 0 3.4.5 3.5 2.6H551c0-.9-.7-1.1-1.5-1.1-.6 0-1.2.1-1.2.8 0 .5.6.8 1.6 1 .3.1.6.1.9.2 1.3.3 2.6.8 2.6 2.3 0 1.7-1.2 2.8-3.7 2.8-2 0-3.7-.8-3.8-2.8h2.1c.1.8.9 1.3 1.8 1.3M558.4 73c.9 0 1.6-.5 1.7-1.1h1.9c-.7 2.2-2.2 2.7-3.8 2.7-2.7 0-4.1-1.9-4.1-4.3 0-2.5 1.7-4.3 4.1-4.3 2.9 0 4.1 2.5 3.9 4.8h-5.8c.2 1.6.9 2.2 2.1 2.2m-.1-5.2c-1.2 0-1.8.8-1.8 1.7h3.6c-.3-1.1-.7-1.7-1.8-1.7M527.3 88.2c.9 0 1.6-.5 1.7-1.1h1.9c-.7 2.2-2.2 2.7-3.8 2.7-2.7 0-4.1-1.9-4.1-4.3 0-2.5 1.7-4.3 4.1-4.3 2.9 0 4.1 2.5 3.9 4.8h-5.8c.2 1.7.9 2.2 2.1 2.2m-.1-5.2c-1.2 0-1.8.8-1.8 1.7h3.6c-.3-1.1-.7-1.7-1.8-1.7M520.1 88.7c-.5.9-1.4 1.2-2.4 1.2-2.5 0-3.6-2.1-3.6-4.3 0-2.4 1.3-4.2 3.6-4.2.9 0 1.9.4 2.4 1.2v-4.1h2.2v11.2h-2.1zm-1.9-5.7c-1.4 0-1.9 1.1-1.9 2.6 0 1.2.5 2.6 1.9 2.6 1.5 0 1.9-1.3 1.9-2.6s-.4-2.6-1.9-2.6M548.4 78.5c2.8 0 5 1.8 5 5.5 0 3.4-1.8 5.7-5 5.7h-4.8V78.5zm-.2 9.1c1.7 0 2.8-1.1 2.8-3.4 0-2.1-.7-3.7-3.2-3.7H546v7.1zM558.4 88.2c.9 0 1.6-.5 1.7-1.1h1.9c-.7 2.2-2.2 2.7-3.8 2.7-2.7 0-4.1-1.9-4.1-4.3 0-2.5 1.7-4.3 4.1-4.3 2.9 0 4.1 2.5 3.9 4.8h-5.8c.2 1.7.9 2.2 2.1 2.2m-.1-5.2c-1.2 0-1.8.8-1.8 1.7h3.6c-.3-1.1-.7-1.7-1.8-1.7M558.7 77.4l-1.6 2.8h1.5l2.5-2.8zM565.3 81.6v1c.6-.9 1.4-1.3 2.4-1.3 2.6 0 3.7 2.2 3.7 4.4s-1.2 4.2-3.5 4.2c-1 0-1.9-.4-2.4-1.2v3.8h-2.2v-11h2zm3.8 4.1c0-1.5-.6-2.6-1.9-2.6-1.2 0-1.9 1-1.9 2.6 0 1.4.6 2.6 1.9 2.6 1.4-.1 1.9-1.2 1.9-2.6M576.4 81.3c2.6 0 4.2 1.7 4.2 4.3 0 2.5-1.5 4.3-4.2 4.3-2.4 0-4.2-1.5-4.2-4.3 0-2.6 1.7-4.3 4.2-4.3m1-3 1.7 2.2h-1.8l-1-1.3-1 1.3h-1.7l1.7-2.2zm-1 9.9c1.5 0 2-1.3 2-2.6 0-1.2-.4-2.6-2-2.6-1.4 0-1.9 1.1-1.9 2.6-.1 1.5.5 2.6 1.9 2.6M586 81.6v1.5h-1.6v4c0 .8.2.9.9.9.2 0 .5 0 .7-.1v1.7c-.4.1-.9.1-1.3.1-1.5 0-2.5-.3-2.5-1.9V83h-1.3v-1.5h1.3v-2.4h2.2v2.4h1.6zM514.4 98c0-1.7 1.3-3.1 3-3.1 1 0 1.7.3 2.3.8l-.7.8c-.5-.4-.9-.6-1.6-.6-1.1 0-1.9 1-1.9 2.1 0 1.2.8 2.1 2 2.1.6 0 1.1-.2 1.4-.4v-1.1h-1.5v-.9h2.5v2.5c-.6.5-1.4.9-2.5.9-1.8 0-3-1.3-3-3.1M522.7 95h2.6c.7 0 1.3.2 1.7.6.3.3.5.8.5 1.3 0 1-.6 1.6-1.4 1.8l1.6 2.2h-1.2l-1.4-2.1h-1.3v2.1h-1V95zm2.6 3c.7 0 1.2-.4 1.2-1s-.5-1-1.2-1h-1.5v2zM529.6 98c0-1.7 1.3-3.1 3.1-3.1s3.1 1.4 3.1 3.1-1.3 3.1-3.1 3.1-3.1-1.4-3.1-3.1m5.1 0c0-1.2-.8-2.1-2-2.1s-2 .9-2 2.1.8 2.1 2 2.1c1.1 0 2-.9 2-2.1M538 98.5V95h1v3.4c0 1.1.6 1.7 1.5 1.7s1.5-.6 1.5-1.7V95h1v3.4c0 1.8-1 2.7-2.5 2.7-1.6 0-2.5-.9-2.5-2.6M545.5 95h2.3c1.4 0 2.2.8 2.2 2 0 1.3-1.1 2-2.4 2h-1.2v1.9h-1V95zm2.2 3.1c.8 0 1.3-.4 1.3-1.1s-.5-1.1-1.3-1.1h-1.2V98h1.2zM552.1 95h4.4v1h-3.3v1.5h2.9v.9h-2.9v1.6h3.4v.9h-4.4V95zM576.2 45.7c.3.4.6.8 1 1.1.4-.2.9-.2 1.5-.1-.9-.6-1.6-1.5-2.3-2.4-.4-.5-.7-1.1-1-1.7q-.75-1.8-1.8-2.7c-1-.9-2.3-1.4-3.6-.3.5.5 1.7 1 2.6.1.6.4 1.2 1.1 1.6 2.1.1.3.2.7.4 1-.8-.5-1.8-.4-2.3.3.4.2 1.2.4 1.6-.3.1 0 .3.1.4.1.7.4.9 1.1 1.4 1.7-.3 0-.6.2-.9.4.4-.1.9.1 1.4.7M574.1 29.7c.2.7 0 1.3-.1 1.6-.2.6-.8 1.1-1.3 1.5-.8-.8-1.9-.2-2.4.4 1 .7 2.4.4 3.4-.6l-.3 1.5c-.3-.2-.6-.2-1-.1.6.1.9.5.9 1.1v.5c-.3-.3-.7-.6-1.3-.8-.5-.2-1.3-.2-1.9.2.4.8 1.7.9 2.5.4.3.3.7.7.7 1.5s-.4 1.4-1.3 1.6c.6.1 1 0 1.4-.3 0 .4.1.7.1 1.1.4.3.7.7 1.1 1.2q-.6-2.1-.6-4.5c0-1.7.3-3.1.5-4.1.2-.8.2-1.4.1-2-.2-1.3-1.1-1.9-2.3-2 0 .8.5 2 1.8 1.8M574.8 29.4c.1.3.1.6.2.9.1-.4.3-.7.5-1.1 1.4-2.7.8-4.1-.8-4.9-.3.7-.4 2.2 1.1 2.7-.1.5-.2 1.2-.7 2-.2.1-.2.3-.3.4M574.5 27.8c.1-.6-.3-1.3-1.1-1.3-.2.7.4 1.3 1.1 1.3M583.2 52.6l-1.5-.9s.2.4.2.9-.2.9-.2.9zM583.3 52.7l-.9 1.5s.4-.2.9-.2.9.2.9.2zM583.4 52.6l1.5.9s-.2-.4-.2-.9.2-.9.2-.9zM582.5 51l.9 1.5.9-1.5s-.4.2-.9.2c-.6 0-.9-.2-.9-.2M576.5 46.9c-.3-.2-.5-.3-.8-.4-.1-.7-.8-1-2-.8.1.5.6.8 1.1 1-.4.3-.9.8-1.3 1.6 1.1.3 2.4-.3 3-1.4" class="st2"/><path d="M574.2 44c-.9-.2-1.8.1-2.2.8.9.5 2.1.1 2.2-.8M572.8 41.7c.2-.6-.3-1-1.3-1 0 .2.1.4.3.5-.4.1-.8.4-1.3.9.6.4 1.6.2 2.3-.4M572.6 30.4c-.1-.2-.2-.3-.3-.4.2-.4-.2-.8-.9-1-.1.3.1.6.3.9q-.45 0-1.2.6c.5.4 1.4.3 2.1-.1M579 50.8c-.5-.5-1.3-.3-1.7.2.5.4 1.3.4 1.7-.2M573.1 31.4c-.5-.5-1.2-.4-1.6.1.4.4 1.1.5 1.6-.1M571 37.9c.4.2 1.2.2 1.4-.4-.5-.4-1.2-.2-1.4.4M572.2 46.8c.4.4 1.2.5 1.7-.1-.5-.5-1.4-.4-1.7.1M576.9 48.9c-.6-.4-1.4 0-1.5.6.4.2 1.2.1 1.5-.6M572.3 43.8c-.4-.4-1.1-.3-1.4.1.3.3 1 .4 1.4-.1M571.7 36.6c-.6-.7-1.7-.7-2.2 0 .6.5 1.6.8 2.2 0M584.5 49.5c.1-.2 0-.3-.1-.4s-.3-.3-.8-.7c-.1-.1-.2-.1-.3-.1s-.2.1-.3.1c-.5.4-.7.6-.8.7s-.2.3-.1.4c.1.2.3.2.4.1-.2.2 0 .5.1.5.1.1.3 0 .4-.1 0 .3.1.4.3.4s.4-.2.3-.4c.1.2.3.2.4.1s.2-.3.1-.5c.2.2.4.1.4-.1" class="st2"/><path d="M580.2 47.6c-.8-.4-2.3-.9-3.2-.3-.4.2-.7.6-.7 1 .6-.7 2.2-.9 2.7.4.1.4.1.9-.3 1.1.1-.9-.4-1.5-1.2-1.5-.1.4 0 .9.3 1.2-.3 0-.5 0-.7.1 0 0 .3.5.9.6.5 0 .9-.1 1.2-.5.1.6.2 1.1.8 1.3-.6.3-1.1.8-1.3 1.4 2.6-.1 2.4-1.1 2.1-1.7-1.5.4-1.2-1.1-1.2-2.1.1.1.6.3 1 .4-.1.3-.2.5-.5.6.8-.1 1.1-.3 2.4-1.4-.8 0-1.6-.3-2.3-.6M593.1 39.9c-.6.6-1.3 1.5-1.8 2.7-.3.6-.6 1.2-1 1.7-.7 1-1.5 1.8-2.3 2.4.7-.1 1.2-.1 1.5.1.3-.3.6-.7 1-1.1.5-.6.9-.8 1.6-.6-.3-.3-.5-.4-.9-.4.4-.7.6-1.3 1.4-1.7 0 0 .3-.1.4-.1.4.7 1.2.5 1.6.3-.6-.7-1.5-.8-2.3-.3.1-.3.3-.6.4-1 .3-1.1.9-1.8 1.6-2.1.9.9 2.1.4 2.6-.1-1.5-1.2-2.8-.8-3.8.2M592.1 29.9c-.1.6-.1 1.2.1 2 .2 1 .5 2.4.5 4.1 0 1.5-.2 3.1-.6 4.5.4-.5.7-.9 1.1-1.2.1-.4.1-.7.1-1.1.3.3.8.4 1.4.3-.9-.2-1.3-.8-1.3-1.6 0-.7.4-1.2.7-1.5.8.5 2.1.4 2.5-.4-.6-.3-1.4-.4-1.9-.2-.6.2-1 .5-1.3.8v-.5c0-.6.3-1 .9-1.1-.4-.1-.7 0-1 .1l-.3-1.5c1 .9 2.4 1.3 3.4.6-.6-.5-1.6-1.2-2.4-.4-.5-.4-1.1-.9-1.3-1.5-.1-.3-.3-.9-.1-1.6 1.3.2 1.8-1 1.8-1.8-1.2.1-2.1.7-2.3 2M591.2 29.2c.2.4.3.7.5 1.1 0-.3.1-.6.2-.9-.1-.1-.1-.2-.2-.3-.4-.8-.6-1.5-.7-2 1.4-.5 1.4-2 1.1-2.7-1.7.7-2.3 2.1-.9 4.8" class="st2"/><path d="M592.1 27.8c.7 0 1.3-.6 1.1-1.3-.8 0-1.1.8-1.1 1.3M592.9 45.7c-1.2-.2-2 .1-2 .8-.3.1-.5.2-.8.4.7 1.1 1.9 1.7 3 1.4-.5-.8-.9-1.4-1.3-1.6.6-.2 1-.6 1.1-1M592.5 44c.1.8 1.2 1.2 2.2.8-.4-.6-1.3-.9-2.2-.8M594.9 41.2c.1-.1.2-.3.3-.5-1 0-1.5.4-1.3 1 .7.6 1.7.8 2.4.4-.6-.5-1-.8-1.4-.9M595.3 29c-.7.2-1.1.6-.9 1-.1.1-.2.2-.3.4.7.4 1.6.5 2.1 0-.5-.4-.9-.5-1.2-.6.2-.2.3-.5.3-.8M589.3 51c-.3-.5-1.2-.7-1.7-.2.5.6 1.3.6 1.7.2M593.6 31.4c.4.6 1.2.4 1.6.1-.4-.4-1.2-.6-1.6-.1M595.6 37.9c-.2-.5-.9-.8-1.4-.4.3.5 1 .6 1.4.4" class="st2"/><path d="M594.5 46.8c-.4-.5-1.2-.6-1.7-.1.5.6 1.3.5 1.7.1M589.8 48.9c.3.7 1 .8 1.5.6-.1-.6-.9-1-1.5-.6M595.8 43.9c-.3-.4-1-.5-1.4-.1.4.5 1 .4 1.4.1M594.9 36.6c.7.7 1.7.5 2.2 0-.5-.6-1.6-.7-2.2 0" class="st2"/><path d="M590.4 48.3c-.1-.4-.4-.8-.7-1-.9-.5-2.4-.1-3.2.3-.7.3-1.5.5-2.2.6 1.3 1.1 1.6 1.4 2.4 1.4-.2-.2-.4-.4-.5-.6.4-.2.9-.4 1-.4 0 1 .3 2.5-1.2 2.1-.2.6-.5 1.6 2.1 1.7-.1-.6-.7-1.1-1.3-1.4.6-.2.7-.7.8-1.3.3.3.7.5 1.2.5.6 0 .9-.6.9-.6-.2-.1-.4-.1-.7-.1.3-.3.4-.8.3-1.2-.8 0-1.4.6-1.2 1.5-.4-.2-.4-.8-.3-1.1.4-1.3 2-1.1 2.6-.4M591.8 36c0-6.3-3.8-11.4-8.4-11.4S575 29.7 575 36s3.8 11.4 8.4 11.4 8.4-5.1 8.4-11.4m-8.5 10.6c-4.2 0-7.6-4.8-7.6-10.6 0-5.9 3.4-10.6 7.6-10.6s7.6 4.8 7.6 10.6-3.4 10.6-7.6 10.6" class="st2"/><path d="M583.3 26.1c-.7 0-1.4.2-2.1.5h4.1c-.6-.3-1.3-.5-2-.5M586.5 27.2h-6.3c-.2.1-.4.3-.6.5h7.4c-.1-.2-.3-.3-.5-.5M587.7 28.4H579c-.1.1-.2.3-.4.5h9.4c-.1-.2-.2-.4-.3-.5M576.5 36.3v.5h13.7v-.5zM580.2 44.7h6.3c.2-.1.4-.3.6-.5h-7.5c.2.2.4.4.6.5M583.3 45.9c.7 0 1.4-.2 2.1-.5h-4.1c.6.3 1.3.5 2 .5M579.4 29.5h-1.3c-.1.2-.2.3-.3.5h1.2c.2-.2.3-.3.4-.5M587.6 30h1.2c-.1-.2-.2-.3-.3-.5h-1.3c.2.2.3.3.4.5M578.8 30.7h-1.2c-.1.2-.1.3-.2.5h1.3c0-.2 0-.4.1-.5M588 31.1h1.3c-.1-.2-.1-.3-.2-.5h-1.2c0 .2.1.4.1.5M578.6 32v-.2h-1.5c-.1.2-.1.3-.1.5h.9c.2-.2.5-.3.7-.3M588 32c.3 0 .6.1.8.2h.9c0-.2-.1-.3-.1-.5h-1.5c-.1.2-.1.2-.1.3M577.3 32.9h-.4c0 .2-.1.3-.1.5h.4c-.1-.2 0-.3.1-.5M589.6 33.4h.4c0-.2-.1-.3-.1-.5h-.4c0 .2 0 .3.1.5M577.2 34.4c-.1-.1-.1-.2-.1-.3h-.5c0 .2 0 .3-.1.5h.8c0-.1 0-.2-.1-.2M589.4 34.4s0 .1-.1.1h.8c0-.2 0-.3-.1-.5h-.5c0 .2 0 .3-.1.4M585.9 29.5h-5.1c.1.1.2.3.3.5h4.4c.1-.2.2-.3.4-.5M585.2 30.7h-3.8c.1.2.1.3.1.5h3.5c.1-.2.2-.4.2-.5M585.1 32v-.2h-3.4v.2c.3 0 .6.1.8.2h2c0-.1.3-.2.6-.2M583.5 33.4c0-.2.1-.3.2-.5h-.7c.1.1.1.3.2.5zM583.8 34.5c-.1-.1-.1-.3-.2-.5h-.5c0 .2-.1.4-.2.5zM582.7 37.5h-6.1c0 .2 0 .3.1.5h5.7c0-.2.1-.4.3-.5M584.3 37.9h5.7c0-.2 0-.3.1-.5H584c.1.2.2.4.3.5M582 38.6h-5.3c0 .2.1.3.1.5h5.1c0-.2 0-.3.1-.5M584.8 39.1h5.1c0-.2.1-.3.1-.5h-5.3c0 .2.1.3.1.5M581.9 40v-.2H577c0 .2.1.3.1.5h4c.2-.2.5-.3.8-.3M584.8 40c.3 0 .5.1.8.2h4c.1-.2.1-.3.1-.5h-4.8c-.1.1-.1.2-.1.3M580.5 40.9h-3.1c.1.2.1.3.2.5h2.8c0-.2 0-.4.1-.5M586.3 41.3h2.8c.1-.2.1-.3.2-.5h-3.1c.1.2.1.4.1.5M581.4 42.5h.9c0-.2-.2-.4-.4-.4s-.4.2-.5.4M584.3 42.5h.9c-.1-.2-.3-.4-.5-.4s-.3.2-.4.4M578.2 34.5h.9c0-.2-.2-.4-.4-.4-.3 0-.4.2-.5.4M581.6 34.1c-.2 0-.4.2-.4.4h.9c-.2-.2-.3-.4-.5-.4M588 34.1c-.2 0-.4.2-.4.4h.9c-.1-.2-.3-.4-.5-.4M585.1 34.1c-.2 0-.4.2-.5.4h.9c0-.2-.2-.4-.4-.4M580.3 42h-2.4c.1.2.2.3.3.5h2.4c-.2-.1-.2-.4-.3-.5M586.1 42.5h2.4c.1-.2.2-.3.3-.5h-2.4c-.1.1-.2.4-.3.5" class="st2"/><path d="M581.6 33.6q.6 0 .9.6c.1-.1.1-.3.1-.5 0-.6-.5-1.1-1.1-1.1-.2 0-.4.1-.5.2l-.4.5-.1-.1s.6-1 .6-1.6-.4-1.5-1-2c-.6.5-1 1.4-1 2s.6 1.6.6 1.6l-.1.1-.4-.5c-.2-.1-.3-.2-.5-.2-.6 0-1.1.5-1.1 1.1 0 .2 0 .3.1.5.2-.3.5-.6.9-.6.6 0 1 .6 1 1.1 0 .2 0 .4-.1.6s-.1.3-.2.5h1.5c-.1-.1-.2-.3-.2-.5s-.1-.4-.1-.6c.1-.6.4-1.1 1.1-1.1m-1.5-3.5c.7 1 .6 1.8 0 2.9zM588 33.6q.6 0 .9.6c.1-.1.1-.3.1-.5 0-.6-.5-1.1-1.1-1.1-.2 0-.4.1-.5.2l-.4.5-.1-.1s.6-1 .6-1.6-.4-1.5-1-2c-.6.5-1 1.4-1 2s.6 1.6.6 1.6l-.1.1-.4-.5c-.2-.1-.3-.2-.5-.2-.6 0-1.1.5-1.1 1.1 0 .2 0 .3.1.5.2-.3.5-.6.9-.6.6 0 1 .6 1 1 0 .2 0 .4-.1.6s-.1.3-.2.5h1.5c-.1-.1-.2-.3-.2-.5s-.1-.4-.1-.6c.1-.5.5-1 1.1-1m-1.5-3.5c.7 1 .6 1.8 0 2.9zM583.3 37.6c-.6.5-1 1.4-1 2s.6 1.6.6 1.6l-.1.1-.4-.5c-.2-.1-.3-.2-.5-.2-.6 0-1.1.5-1.1 1.1 0 .2 0 .3.1.5.2-.3.5-.6.9-.6.6 0 1 .6 1 1.1 0 .4-.1.8-.3 1h1.5c-.1-.2-.3-.6-.3-1 0-.5.4-1 1-1q.6 0 .9.6c.1-.1.1-.3.1-.5 0-.6-.5-1.1-1.1-1.1-.2 0-.4.1-.5.2l-.4.5-.1-.1s.6-1 .6-1.6c.1-.7-.3-1.7-.9-2.1m0 3.3V38c.7 1.1.6 1.9 0 2.9" class="st2"/><path d="M582.2 43.1h-3.6c.1.2.2.3.4.5h3c.1-.1.1-.3.2-.5M584.7 43.6h3c.1-.1.2-.3.4-.5h-3.6c0 .2.1.4.2.5M584.1 16.8c0-.4-.3-.7-.7-.7s-.7.3-.7.7.3.7.7.7.7-.3.7-.7M584 23.3l.2.2.3-.5-.3-.5h-1.8l-.3.5.4.5.2-.2zM581.1 23.6l.3.1.1-.6-.5-.3-1.6.6-.1.6.5.4.1-.4zM586.8 24v.4l.6-.4-.1-.6-1.7-.6-.4.3v.6l.3-.1zM579 35.2h-2.5v.5h2.3c0-.2.1-.3.2-.5M587.9 35.7h2.3v-.5h-2.5c0 .2.1.3.2.5M585.2 35.7c.1-.1.2-.3.2-.5h-4.2c.1.2.1.3.2.5z" class="st2"/><path d="m588.5 20.1-2-.8-.4.8c-.2.3-.5.3-.7.3-.2-.1-.4-.3-.3-.6l.2-.9-1.9-.8-1.9.8.2.9c.1.3-.1.5-.3.6s-.5 0-.7-.3l-.4-.8-2 .8.2.8c.1.3-.1.5-.3.6s-.5 0-.7-.3l-.4-.7-1.3.5c-.2-.5-.6-.3-.8-.3l1.9 3.6c.5 1.1.3 1.9.3 2.1.6-.9 1.9-1.8 2.2-1.9l-1-.8c0 .1 0 .3.1.5l-.4.3-.6-1c1.7-1.2 3.7-1.9 5.8-1.9-.1-.2-.2-.5-.7-.5-1.8.2-3.6.8-5.3 2l-.9-1.6.7-.3c.4.7.9.7 1.5.5s.8-.7.6-1.3l1.1-.4c.5.8 1 .8 1.5.6s.7-.7.6-1.4c0 0 .3-.1.7-.3.2 1.2.6 1.9.6 1.9s.4-.7.6-1.9c.3.1.7.3.7.3-.1.7.1 1.2.6 1.4s1 .2 1.5-.6l1.1.4c-.1.7.1 1.1.6 1.3.6.2 1.1.2 1.5-.5l.7.3-.9 1.6c-1.7-1.1-3.5-1.8-5.3-2-.5 0-.6.2-.7.5 2.1 0 4.1.7 5.8 1.9l-.6 1-.4-.3c0-.2.1-.4.1-.5l-1 .8c.2.1 1.6 1 2.2 1.9 0-.2-.2-1 .3-2.1l1.9-3.6c-.2-.1-.6-.2-.8.3l-1.3-.5-.4.7c-.2.3-.5.3-.7.3-.2-.1-.4-.3-.3-.6zM559.1 35.1c0 .2.2.5.4.5s.5-.2.5-.4-.2-.5-.4-.5c-.3 0-.5.2-.5.4M558.4 37.9l.2 1.3h.2v-.5l1.1-.2.1.7c0 .2.1.2.2.2h.2l-.1-.9 1-.1.1.9c-.2.1-.3.1-.4.2v.2c.1 0 .3.1.5 0 .1 0 .2 0 .2-.1l-.3-2.1c-.2 0-.2.1-.2.4l-2.4.3c-.1-.3-.2-.4-.4-.3M559.8 42.8c.4.2.8.2 1.2.1s.8-.4 1-.7.2-.7.1-1.1-.3-.7-.7-.9c-.3-.2-.8-.2-1.2-.1s-.8.4-1 .7-.2.7-.1 1.1.4.7.7.9m-.3-1.7c.2-.2.4-.4.8-.5s.7-.1 1 0h.1c.2.1.3.3.4.5.1.3 0 .5-.1.8-.2.2-.4.4-.8.5s-.7.1-1 0-.4-.3-.5-.6c-.1-.2 0-.5.1-.7M562.8 44l.2-.1-.5-1.2c-.2.1-.2.2-.1.5l-2.2.9c-.2-.3-.2-.3-.4-.3l.5 1.2.2-.1c0-.1 0-.3-.1-.4l2.2-.9c0 .2.1.3.2.4M563.6 48.1c.2.1.5.1.7-.1.2-.1.4-.3.4-.5s0-.5-.2-.7c0-.1-.1-.2-.2-.3s-.2-.3-.2-.4l-.3-.5c-.2.1-.2.2 0 .5l-2.1 1.2c-.2-.2-.3-.3-.4-.2l.6 1.1.2-.1c0-.1-.1-.2-.1-.4l.9-.5c.1.6.4.8.7.9m.4-1.6c.1.1.2.2.2.3.1.2.1.3.1.5 0 .1-.1.3-.3.4-.1.1-.3.1-.5.1-.2-.1-.4-.3-.5-.6zM564 51.3c.4.2.9.2 1.3-.2l1.2-.9c.2.2.3.3.5.1l-.7-.9-.2.1c0 .1.1.3.2.4l-1.2.9q-.75.6-1.2 0c-.4-.4-.3-.8.2-1.2l1.2-.9.3.3.2-.1-.8-1c-.1.1-.1.2 0 .5l-1.2.9c-.3.3-.5.5-.5.8q0 .45.3.9c.2.1.3.2.4.3M566.5 53.9c.4.2.8.2 1.1-.1s.3-.6 0-1c.3.1.6 0 .8-.2s.4-.6-.1-1.1l-1-.9c-.1.1-.1.2.1.5l-1.7 1.7c-.3-.2-.3-.2-.5-.1l1 .9zm1.1-2.6.3.3c.2.2.3.5 0 .7-.2.2-.4.3-.7.1l-.3-.3zM566 53l.7-.7.4.3c.3.3.3.6.1.8q-.45.45-.9 0l-.3-.3zM570.2 53.3l.1-.2-1-.7c-.1.1-.1.2.2.5l-1.4 1.9c-.3-.1-.4-.2-.5 0l1.7 1.3c.1 0 .1-.1.2-.2s.2-.4.2-.5l-.1-.1c-.1.1-.2.2-.4.3l-.8-.6 1.4-1.9c.1.1.2.2.4.2M572.2 54.7l.1-.2-1.1-.7c-.1.2 0 .2.2.5l-1.3 2c-.3-.1-.4-.1-.5 0l1.1.7.1-.2-.3-.3 1.3-2.1c.2.2.3.3.4.3M574.7 57.3c.2-.4.2-.8.1-1.2-.1-.3-.4-.6-.8-.8-.8-.4-1.6 0-2 .8-.2.4-.2.8-.1 1.2.1.3.4.6.7.8h.1c.2.6.5 1.1.9 1.3h.1c.4.2.6.1.8 0v-.2c-.1 0-.2 0-.4-.1-.4-.2-.7-.5-1-1 .7.2 1.3-.1 1.6-.8m-1.9.6c-.3-.1-.4-.3-.5-.6s0-.6.1-.9c.3-.7.9-1 1.4-.7h.1q.75.45.3 1.5c-.3.6-.8.9-1.4.7M575.9 59.3c.1.1.3.1.4.2.3.1.7.1.9-.1.3-.2.5-.4.6-.8l.4-1.4c.3 0 .4 0 .5-.1l-1.1-.3-.1.2c.1.1.3.1.4.2l-.4 1.4c-.1.3-.2.5-.4.6s-.4.1-.6.1c-.3-.1-.5-.2-.6-.4s-.1-.4 0-.7l.4-1.4h.4l.1-.2-1.2-.4c0 .2 0 .2.3.4l-.4 1.4c-.1.4-.1.7 0 1 .1.1.2.2.4.3M580.6 57.6c0 .2 0 .3.1.4h.2c.1-.1.2-.3.2-.5v-.2L579 57c0 .2 0 .2.3.3l-.4 2.4c-.3 0-.4 0-.4.2l2.1.3c0-.1.1-.1.1-.2v-.5h-.2c-.1.1-.1.3-.2.4l-.9-.1.2-1.1.7.1c.2 0 .2 0 .3-.1v-.2l-1-.1.1-1zM582.8 59.2v.3h.7c.2 0 .3 0 .4-.1v-.3h-.7c-.3 0-.4 0-.4.1M586 60.3l1.2-.1V60h-.4l-.3-1.9h-.2c-.2 0-.4.1-.5.2v.2h.4l.2 1.6c-.4 0-.5 0-.4.2M587.6 59.4c0 .2.1.4.3.5s.5.1.8.1c.6-.1.9-.6.8-1s-.4-.6-.8-.7c.2-.1.5-.4.4-.8-.1-.3-.4-.7-1-.5-.3.1-.5.2-.6.4s-.2.4-.1.6c.1.4.4.6.7.7-.4 0-.6.3-.5.7m.2-1.7c0-.1 0-.3.1-.3.1-.1.2-.1.3-.2h.3c.1.1.2.2.2.3 0 .2 0 .4-.2.6h-.1c-.3 0-.6-.1-.6-.4m.5.8h.2c.4.1.6.2.7.5s-.1.5-.4.6-.6-.1-.7-.4 0-.5.2-.7M590.3 59.4l1.2-.4-.1-.2h-.4l-.6-1.8h-.2c-.2.1-.4.2-.5.3v.2h.4l.5 1.6c-.3.1-.3.2-.3.3M592.2 58.5q.45.3.9 0c.3-.1.5-.3.5-.6.1-.3.1-.5 0-.8-.1-.2-.3-.4-.5-.5s-.5-.1-.7 0c-.3.1-.5.4-.5.6-.1-.7.2-1.3.8-1.7l-.1-.2c-1 .4-1.4 1.4-1 2.5.1.3.3.6.6.7m.2-1.5c.2-.1.3-.1.5 0 .1.1.2.2.3.4s.1.4.1.5q0 .3-.3.3c-.1.1-.3.1-.4 0h-.1c-.3-.2-.5-.7-.5-.7 0-.2.1-.4.4-.5M595.6 56.3c.2 0 .5-.2.5-.4s-.2-.5-.4-.5-.5.2-.5.4c0 .3.2.5.4.5M559 29.9c-.1.1-.2.5-.2.7-.1.7.1 1.3.7 1.6.2.1.4.2.6.2.9.2 1.6-.3 1.7-1.1.1-.6-.2-.9-.3-1.1 0 0-.1.1-.2.1.1.1.2.4.2.8-.1.3-.2.5-.5.7-.2.1-.6.2-.9.1-.4-.1-.7-.2-.9-.4s-.2-.5-.2-.8c0-.2.1-.3.1-.4.3 0 .4 0 .5-.1V30c-.1-.1-.3-.2-.5-.2.1.1 0 .1-.1.1M559.9 27.6c-.2 0-.4 0-.4.3l-.1.2 2.3 1.7c0 .2 0 .3.1.4h.1l.3-1-.2-.1c-.1.1-.1.3-.2.4l-.6-.5.3-1h.8v.4l.2.1.4-1.1c-.2-.1-.2 0-.3.2zm1.1 1.2-1.1-.8h1.4zM560.9 24.8l-.2-.1-.5 1.1c.2.1.2 0 .4-.3l2.2 1c-.1.3-.1.4.1.5l.5-1.1-.2-.1c-.1.1-.2.2-.2.3l-2.2-1c.1 0 .1-.1.1-.3M562 23c.2 0 .4.1.5.1l.1-.1c-.2-.2-.4-.4-.6-.4-.1.1-.2.3-.4.6-.3.6-.2 1 .2 1.3.3.2.6.1.9 0 .1-.1.2-.2.3-.2s.1-.1.2-.2c.2-.2.4-.3.7-.1.3.1.3.4.1.7-.1.2-.3.3-.4.4-.1-.1-.3-.1-.5-.1l-.1.1c.1.1.2.3.4.4.1 0 .1.1.2.1.1-.1.4-.2.6-.7.3-.6.2-1.1-.3-1.3-.4-.2-.7-.1-1.1.2l-.1.1c-.1.1-.2.1-.3.2-.2.2-.4.2-.6.1s-.3-.4-.1-.7c.1-.3.2-.4.3-.5M563.5 20.3c-.1.1-.3.2-.5.6-.4.5-.4 1 0 1.3.3.2.6.2.9.1.1-.1.2-.1.3-.2.1 0 .1-.1.2-.1.2-.2.4-.2.7 0 .1.1.2.2.2.3s0 .3-.1.4c-.1.2-.3.3-.4.4-.1-.1-.3-.2-.5-.2l-.1.1c.1.2.3.4.4.5h.1c.1 0 .4-.2.7-.6.4-.5.3-1-.1-1.4-.3-.2-.7-.2-1.1.1l-.1.1c-.1.1-.2.1-.3.2q-.3.15-.6 0c-.2-.2-.2-.4 0-.7q.15-.3.3-.3c.1.1.4.1.5.1l.1-.1q-.3-.6-.6-.6M565.4 18.4c.1.1.3.1.4.2l.1-.1c-.1-.1-.2-.3-.3-.4s-.1-.1-.2-.1l-1.4 1.6c.1.1.2.1.5-.1l1.8 1.6c-.2.3-.2.4-.1.5l1.4-1.6c0-.1-.1-.1-.1-.2-.1-.1-.3-.2-.4-.3l-.1.1c.1.1.1.3.2.4l-.6.7-.9-.8.5-.5c.1-.1.1-.2.1-.3l-.1-.1-.7.7-.7-.7zM568.9 18.8l1.1-.8c.4-.3.6-.6.6-1s-.1-.8-.4-1.1c-.5-.7-1.3-.8-2.1-.2l-1.1.8c.1.1.2.1.5 0l1.4 1.9c-.1.2-.1.2 0 .4m-1-2.7.4-.3c.6-.4 1.1-.4 1.6.2.2.3.4.6.4.9s-.2.6-.5.8l-.3.2c-.1.1-.1 0-.2 0zM571.5 16.9l1.9-1c0-.1 0-.1-.1-.2s-.2-.3-.3-.4l-.1.1c0 .1 0 .3.1.5l-.8.5-.6-1 .6-.4.2-.2h-.3l-.6.3-.2-.3h-.5l1 1.8c-.4 0-.4.1-.3.3M575 14.7l-.3.3c-.2.1-.4.1-.5.1-.1-.1-.2-.3-.3-.4h-.2c0 .2 0 .5.2.7.1 0 .5.1.9-.1.3-.1.5-.3.6-.5v-.1zc0-.1 0 0 0 0M600.8 48.9l-.8.9.1.1c.1-.1.2-.2.3-.2l.4.4v-.4l-.2-.2c.3-.4.3-.5.2-.6M600.9 53.2v-.4c-.1.2-.1.3 0 .4M600.9 50.8l-1.7-.2-.1.1q-.15.15 0 .3c0 .1.1.2.2.3l1.6 1.4v-.4l-1.3-1.2 1.3.2zM599.1 54.4c-.1-.1-.3-.2-.4-.2l-.1.1c.1.3.3.5.4.6.1 0 .3-.2.6-.4.5-.4.6-.9.3-1.2-.2-.3-.5-.3-.9-.3-.2 0-.2.1-.4.1-.1 0-.1.1-.2.1-.3.1-.5.1-.7-.1s-.1-.5.1-.8c.2-.2.4-.2.5-.2.1.1.3.2.4.3l.1-.1c-.1-.2-.2-.5-.4-.6-.1 0-.5.1-.8.4-.2.2-.4.4-.4.7 0 .2 0 .5.2.7.3.3.6.4 1.1.2h.1c.1 0 .2-.1.3-.1.3-.1.4 0 .6.1.2.2.1.5-.1.7-.1-.1-.2 0-.3 0" class="st2"/><path d="M600.9 55.6c-4.7 4.1-10.9 6.6-17.6 6.6-14.8 0-26.8-12-26.8-26.8 0-8.4 3.9-15.9 10-20.8h-3.3c-5.4 5.3-8.8 12.6-8.8 20.8 0 16 13 29 29 29 6.6 0 12.7-2.2 17.6-6v-2.8z" class="st2"/></svg>